<svg width="28" height="28" viewBox="0 0 28 28" fill="none" xmlns="http://www.w3.org/2000/svg">
<g opacity="0.6">
<path d="M19.8565 4.00001H11.8452C10.9771 3.99745 10.1434 4.33953 9.52685 4.9509C8.91061 5.56225 8.56175 6.39324 8.55733 7.26152V7.8869H5.12946C4.2999 7.88783 3.50445 8.21802 2.91783 8.80463C2.3312 9.39127 2.00123 10.1868 2.0001 11.0163V24.3949C1.99193 25.4925 2.48803 26.533 3.34603 27.2177C4.20402 27.9023 5.32874 28.155 6.39725 27.9033L11.8078 26.649C11.9415 26.6061 12.0858 26.6103 12.2169 26.6607L17.5811 27.9028C18.6106 28.1418 19.6935 27.914 20.5394 27.2802C21.3855 26.6465 21.9084 25.6715 21.9687 24.6161H22.7385C23.6068 24.6117 24.4377 24.2628 25.0491 23.6466C25.6604 23.0301 26.0026 22.1964 26 21.3281V10.1442C25.9981 8.51517 25.3503 6.95365 24.1986 5.80187C23.0468 4.65009 21.4854 4.00187 19.8565 4.00001ZM20.5875 24.3947C20.5896 25.0707 20.2807 25.7103 19.7496 26.1289C19.2302 26.5464 18.5467 26.6999 17.8985 26.5447L12.5756 25.3136C12.21 25.1974 11.8179 25.1932 11.4502 25.302L6.08065 26.5454C5.4331 26.6981 4.75151 26.5447 4.23186 26.1296C3.701 25.7105 3.39226 25.0709 3.39435 24.3947V12.2831H15.0472C15.432 12.2831 15.7442 11.9711 15.7442 11.5861C15.7442 11.2013 15.432 10.8893 15.0472 10.8893H3.4069C3.43817 10.4534 3.63301 10.0453 3.95246 9.74708C4.27215 9.44886 4.69242 9.28226 5.12945 9.28109H18.8515C19.3117 9.28155 19.7527 9.4645 20.0782 9.79001C20.4035 10.1153 20.5865 10.5563 20.5872 11.0165L20.5875 24.3947ZM24.6064 21.3278C24.6092 21.8265 24.4144 22.306 24.0641 22.6611C23.7141 23.0163 23.2374 23.2179 22.7387 23.2221H21.9812V11.0161C21.9803 10.1866 21.6501 9.3911 21.0635 8.80449C20.4769 8.21786 19.6816 7.88789 18.8519 7.88676H9.9511V7.26137C9.9553 6.76271 10.1569 6.28599 10.5121 5.93594C10.8672 5.58592 11.3468 5.39084 11.8451 5.39364H19.8564C21.1158 5.39527 22.3231 5.89604 23.2136 6.78646C24.104 7.67688 24.6048 8.88423 24.6064 10.1436L24.6064 21.3278Z" fill="black"/>
<path d="M15.1474 17.2097L13.3844 16.9531L12.5957 15.3558C12.4655 15.1344 12.2277 14.9983 11.9708 14.9983C11.7139 14.9983 11.4761 15.1344 11.3459 15.3558L10.5577 16.9531L8.79427 17.2097C8.53175 17.2478 8.31381 17.4316 8.2319 17.6839C8.14976 17.9359 8.21813 18.2129 8.40808 18.3979L9.68375 19.6421L9.3825 21.3981C9.33746 21.6597 9.44527 21.9238 9.65994 22.0797C9.87462 22.2355 10.1593 22.2561 10.394 22.1324L11.971 21.3036L13.5481 22.1324C13.7829 22.2558 14.0673 22.2353 14.282 22.0794C14.4964 21.9236 14.604 21.6594 14.5594 21.3981L14.258 19.6415L15.5336 18.398C15.7236 18.2129 15.7919 17.936 15.7098 17.6837C15.6279 17.4315 15.4099 17.2478 15.1474 17.2097ZM13.0228 18.8996C12.8587 19.0597 12.7838 19.2902 12.8223 19.5161L12.9469 20.2416L12.2952 19.8993C12.0924 19.7924 11.8498 19.7924 11.6468 19.8993L10.9955 20.2416L11.1201 19.5161C11.1586 19.2902 11.0835 19.0597 10.9194 18.8996L10.3923 18.3858L11.1208 18.2796C11.3476 18.2467 11.5441 18.1041 11.6458 17.8983L11.9711 17.2389L12.2971 17.8983C12.3984 18.1041 12.5946 18.2467 12.8214 18.2796L13.5499 18.3858L13.0228 18.8996Z" fill="black"/>
<path d="M18.4431 11.0927C18.1663 10.8347 17.7372 10.8347 17.4602 11.0927C17.3916 11.156 17.3391 11.2349 17.3072 11.3228C17.1945 11.5809 17.2558 11.8819 17.4602 12.0756C17.5223 12.1426 17.5986 12.1948 17.6835 12.2287C17.7673 12.2644 17.8572 12.2833 17.9484 12.2845C18.0417 12.284 18.1339 12.2651 18.2198 12.2287C18.3047 12.1948 18.381 12.1426 18.4431 12.0756C18.5752 11.948 18.6484 11.7711 18.6452 11.5875C18.6463 11.4969 18.6298 11.4069 18.5962 11.3228C18.5619 11.2363 18.5096 11.1579 18.4431 11.0927Z" fill="black"/>
</g>
</svg>
