<svg width="32" height="32" viewBox="0 0 32 32" fill="none" xmlns="http://www.w3.org/2000/svg">
<g opacity="0.4">
<path d="M14.5614 14.415L16.4984 16.8216L22.0455 12.0377V13.3584H23.3664V9.80701H19.7269L19.5801 11.0691H21.1944L21.1064 11.1865L16.6452 15.002L14.7081 12.5952L7.89893 18.2597L8.69142 19.2575L14.5614 14.415Z" fill="black"/>
<path d="M12.1553 18.4066H13.9456V21.8698H12.1553V18.4066Z" fill="black"/>
<path d="M15.4128 19.1403H17.2031V21.8697H15.4128V19.1403Z" fill="black"/>
<path d="M9.01404 20.1382H10.8044V21.8993H9.01404V20.1382Z" fill="black"/>
<path d="M18.4358 17.2913H20.2261V21.8993H18.4358V17.2913Z" fill="black"/>
<path d="M21.6351 15.5597H23.4254V21.8992H21.6351V15.5597Z" fill="black"/>
<path d="M15.5884 2H17.0851V3.49678H15.5884V2Z" fill="black"/>
<path d="M15.5884 28.8257H17.0851V30.3225H15.5884V28.8257Z" fill="black"/>
<path d="M5.75647 24.5406H7.25324V26.0374H5.75647V24.5406Z" fill="black"/>
<path d="M25.01 24.5406H26.5068V26.0374H25.01V24.5406Z" fill="black"/>
<path d="M5.75647 6.10901H7.25324V7.60578H5.75647V6.10901Z" fill="black"/>
<path d="M25.01 6.10901H26.5068V7.60578H25.01V6.10901Z" fill="black"/>
<path d="M2 15.2955H3.49678V16.7923H2V15.2955Z" fill="black"/>
<path d="M29.2072 15.2955H30.7039V16.7923H29.2072V15.2955Z" fill="black"/>
<path d="M4.72942 8.63307C3.61408 10.3353 2.90979 12.2137 2.64549 14.2388L2.61621 14.4149H3.49675L3.52603 14.2681C3.81961 12.3017 4.55337 10.4234 5.6685 8.77974L5.84457 8.54492H4.81723L4.72942 8.63307Z" fill="black"/>
<path d="M3.46719 17.8196L3.43792 17.6729H2.58667L2.61595 17.8489C2.88005 19.9328 3.55524 21.8405 4.67037 23.6015L4.72913 23.6602H5.75647L5.5804 23.4254C4.46506 21.7524 3.73132 19.8152 3.46723 17.8196L3.46719 17.8196Z" fill="black"/>
<path d="M29.1778 14.2976L29.2071 14.4444H30.0876L30.0583 14.2683C29.7648 12.2431 29.0605 10.3648 27.9744 8.66252L27.9156 8.60376H26.8883L27.0644 8.83858C28.1505 10.4529 28.8842 12.3313 29.1778 14.2976L29.1778 14.2976Z" fill="black"/>
<path d="M29.2364 17.6729L29.2071 17.8196C28.943 19.8153 28.2093 21.782 27.0939 23.4254L26.9178 23.6603H27.9452L28.004 23.6015C29.1193 21.8699 29.8236 19.9328 30.0584 17.849L30.0877 17.6729L29.2364 17.6729Z" fill="black"/>
<path d="M23.4251 5.3165L23.4543 5.34578H24.9218L24.5402 5.0522C22.6913 3.64367 20.4608 2.73368 18.1425 2.44029L17.9664 2.41101V3.29155L18.1132 3.32083C20.0208 3.58493 21.8112 4.23062 23.4255 5.3165L23.4251 5.3165Z" fill="black"/>
<path d="M8.105 5.05244L7.72339 5.34602H9.19087L9.22015 5.31674C10.8637 4.23086 12.6541 3.58517 14.5911 3.32107L14.7379 3.2918V2.41125L14.5618 2.44053C12.214 2.7337 9.98357 3.64371 8.10493 5.05244L8.105 5.05244Z" fill="black"/>
<path d="M23.5721 26.9474C21.9285 28.0332 20.0502 28.767 18.0837 29.0313L17.9369 29.0606V29.9411L18.113 29.9118C20.4902 29.589 22.7502 28.6791 24.6579 27.2117L25.0395 26.9181L23.5721 26.9474Z" fill="black"/>
<path d="M9.10217 26.9474L9.04341 26.9181H7.60522L7.98683 27.2117C9.89446 28.6792 12.1837 29.5889 14.5612 29.9118L14.7372 29.9411V29.0606L14.5905 29.0313C12.624 28.7672 10.7164 28.0335 9.10205 26.9474L9.10217 26.9474Z" fill="black"/>
</g>
</svg>
