<svg width="62" height="24" viewBox="0 0 62 24" fill="none" xmlns="http://www.w3.org/2000/svg">
<g id="search-icon">
<path id="Vector" opacity="0.6" d="M57.0626 14.6148H56.223L55.9254 14.3298C57.2007 12.8516 57.8596 10.835 57.4983 8.69161C56.9988 5.75639 54.5333 3.41244 51.5576 3.05345C47.0622 2.50442 43.2789 6.26319 43.8315 10.7294C44.1928 13.6857 46.5521 16.1352 49.5065 16.6315C51.6639 16.9905 53.6937 16.3358 55.1815 15.0688L55.4685 15.3645V16.1986L59.9851 20.6859C60.4208 21.1188 61.1328 21.1188 61.5686 20.6859C62.0043 20.253 62.0043 19.5456 61.5686 19.1127L57.0626 14.6148ZM50.6862 14.6148C48.0399 14.6148 45.9038 12.4926 45.9038 9.86358C45.9038 7.23456 48.0399 5.11233 50.6862 5.11233C53.3324 5.11233 55.4685 7.23456 55.4685 9.86358C55.4685 12.4926 53.3324 14.6148 50.6862 14.6148Z" fill="black"/>
</g>
</svg>
