<svg width="60" height="60" viewBox="0 0 58 47" fill="none" xmlns="http://www.w3.org/2000/svg">
<path d="M1.02 41C0.953333 41 0.896667 40.9767 0.85 40.93C0.803333 40.8833 0.78 40.8267 0.78 40.76V34.25C0.78 34.1767 0.8 34.1167 0.84 34.07C0.886667 34.0233 0.946667 34 1.02 34H1.79C1.87 34 1.93 34.0167 1.97 34.05C2.01 34.0767 2.04667 34.1133 2.08 34.16L4.96 38.64V34.25C4.96 34.1767 4.98 34.1167 5.02 34.07C5.06667 34.0233 5.12667 34 5.2 34H6.04C6.11333 34 6.17333 34.0233 6.22 34.07C6.26667 34.1167 6.29 34.1767 6.29 34.25V40.75C6.29 40.8233 6.26667 40.8833 6.22 40.93C6.17333 40.9767 6.11667 41 6.05 41H5.27C5.15667 41 5.06 40.9467 4.98 40.84L2.11 36.46V40.76C2.11 40.8333 2.08667 40.8933 2.04 40.94C1.99333 40.98 1.93333 41 1.86 41H1.02ZM10.0303 41.1C9.25031 41.1 8.64698 40.9 8.22031 40.5C7.79365 40.0933 7.56365 39.54 7.53031 38.84L7.52031 38.4L7.53031 37.96C7.56365 37.2667 7.79698 36.7167 8.23031 36.31C8.66365 35.9033 9.26365 35.7 10.0303 35.7C10.797 35.7 11.397 35.9033 11.8303 36.31C12.2636 36.7167 12.497 37.2667 12.5303 37.96C12.537 38.04 12.5403 38.1867 12.5403 38.4C12.5403 38.6133 12.537 38.76 12.5303 38.84C12.497 39.54 12.267 40.0933 11.8403 40.5C11.4136 40.9 10.8103 41.1 10.0303 41.1ZM10.0303 40.11C10.3836 40.11 10.657 40 10.8503 39.78C11.0436 39.5533 11.1503 39.2233 11.1703 38.79C11.177 38.7233 11.1803 38.5933 11.1803 38.4C11.1803 38.2067 11.177 38.0767 11.1703 38.01C11.1503 37.5767 11.0436 37.25 10.8503 37.03C10.657 36.8033 10.3836 36.69 10.0303 36.69C9.67698 36.69 9.40365 36.8033 9.21031 37.03C9.01698 37.25 8.91031 37.5767 8.89031 38.01L8.88031 38.4L8.89031 38.79C8.91031 39.2233 9.01698 39.5533 9.21031 39.78C9.40365 40 9.67698 40.11 10.0303 40.11ZM15.9592 41C15.3526 41 14.8959 40.8433 14.5892 40.53C14.2892 40.21 14.1392 39.7433 14.1392 39.13V36.86H13.3492C13.2826 36.86 13.2259 36.8367 13.1792 36.79C13.1326 36.7367 13.1092 36.6767 13.1092 36.61V36.04C13.1092 35.9733 13.1326 35.9167 13.1792 35.87C13.2259 35.8233 13.2826 35.8 13.3492 35.8H14.1392V34.14C14.1392 34.0667 14.1626 34.01 14.2092 33.97C14.2559 33.9233 14.3126 33.9 14.3792 33.9H15.1892C15.2626 33.9 15.3192 33.9233 15.3592 33.97C15.4059 34.01 15.4292 34.0667 15.4292 34.14V35.8H16.6792C16.7526 35.8 16.8092 35.8233 16.8492 35.87C16.8959 35.91 16.9192 35.9667 16.9192 36.04V36.61C16.9192 36.6833 16.8959 36.7433 16.8492 36.79C16.8026 36.8367 16.7459 36.86 16.6792 36.86H15.4292V39.03C15.4292 39.3167 15.4792 39.5333 15.5792 39.68C15.6792 39.8267 15.8459 39.9 16.0792 39.9H16.7692C16.8359 39.9 16.8926 39.9233 16.9392 39.97C16.9859 40.0167 17.0092 40.0733 17.0092 40.14V40.76C17.0092 40.8267 16.9859 40.8833 16.9392 40.93C16.8992 40.9767 16.8426 41 16.7692 41H15.9592ZM18.0963 34.94C18.0297 34.94 17.973 34.9167 17.9263 34.87C17.8797 34.8233 17.8563 34.7667 17.8563 34.7V33.98C17.8563 33.9133 17.8797 33.8567 17.9263 33.81C17.973 33.7633 18.0297 33.74 18.0963 33.74H19.0063C19.073 33.74 19.1297 33.7633 19.1763 33.81C19.2297 33.8567 19.2563 33.9133 19.2563 33.98V34.7C19.2563 34.7667 19.233 34.8233 19.1863 34.87C19.1397 34.9167 19.0797 34.94 19.0063 34.94H18.0963ZM18.1363 41C18.0697 41 18.013 40.9767 17.9663 40.93C17.9197 40.8833 17.8963 40.8267 17.8963 40.76V36.04C17.8963 35.9733 17.9197 35.9167 17.9663 35.87C18.013 35.8233 18.0697 35.8 18.1363 35.8H18.9663C19.0397 35.8 19.0963 35.8233 19.1363 35.87C19.183 35.91 19.2063 35.9667 19.2063 36.04V40.76C19.2063 40.8267 19.183 40.8833 19.1363 40.93C19.0963 40.9767 19.0397 41 18.9663 41H18.1363ZM21.333 41C21.2664 41 21.2097 40.9767 21.163 40.93C21.1164 40.8833 21.093 40.8267 21.093 40.76V36.86H20.283C20.2164 36.86 20.1597 36.8367 20.113 36.79C20.0664 36.7367 20.043 36.6767 20.043 36.61V36.04C20.043 35.9733 20.0664 35.9167 20.113 35.87C20.1597 35.8233 20.2164 35.8 20.283 35.8H21.093V35.39C21.093 34.1967 21.7464 33.6 23.053 33.6H23.733C23.8064 33.6 23.863 33.6233 23.903 33.67C23.9497 33.71 23.973 33.7667 23.973 33.84V34.41C23.973 34.4833 23.9497 34.5433 23.903 34.59C23.8564 34.6367 23.7997 34.66 23.733 34.66H23.093C22.833 34.66 22.6497 34.7233 22.543 34.85C22.443 34.9767 22.393 35.1733 22.393 35.44V35.8H23.633C23.7064 35.8 23.763 35.8233 23.803 35.87C23.8497 35.91 23.873 35.9667 23.873 36.04V36.61C23.873 36.6833 23.8497 36.7433 23.803 36.79C23.7564 36.8367 23.6997 36.86 23.633 36.86H22.393V40.76C22.393 40.8267 22.3697 40.8833 22.323 40.93C22.2764 40.9767 22.2197 41 22.153 41H21.333ZM24.8737 34.94C24.807 34.94 24.7503 34.9167 24.7037 34.87C24.657 34.8233 24.6337 34.7667 24.6337 34.7V33.98C24.6337 33.9133 24.657 33.8567 24.7037 33.81C24.7503 33.7633 24.807 33.74 24.8737 33.74H25.7837C25.8503 33.74 25.907 33.7633 25.9537 33.81C26.007 33.8567 26.0337 33.9133 26.0337 33.98V34.7C26.0337 34.7667 26.0103 34.8233 25.9637 34.87C25.917 34.9167 25.857 34.94 25.7837 34.94H24.8737ZM24.9137 41C24.847 41 24.7903 40.9767 24.7437 40.93C24.697 40.8833 24.6737 40.8267 24.6737 40.76V36.04C24.6737 35.9733 24.697 35.9167 24.7437 35.87C24.7903 35.8233 24.847 35.8 24.9137 35.8H25.7437C25.817 35.8 25.8737 35.8233 25.9137 35.87C25.9603 35.91 25.9837 35.9667 25.9837 36.04V40.76C25.9837 40.8267 25.9603 40.8833 25.9137 40.93C25.8737 40.9767 25.817 41 25.7437 41H24.9137ZM29.5604 41.1C28.8271 41.1 28.2404 40.8967 27.8004 40.49C27.3671 40.0833 27.1371 39.52 27.1104 38.8L27.1004 38.4L27.1104 38C27.1371 37.28 27.3671 36.7167 27.8004 36.31C28.2404 35.9033 28.8271 35.7 29.5604 35.7C30.0804 35.7 30.5204 35.7933 30.8804 35.98C31.2471 36.1667 31.5171 36.3967 31.6904 36.67C31.8704 36.9367 31.9671 37.19 31.9804 37.43C31.9871 37.4967 31.9637 37.5533 31.9104 37.6C31.8637 37.6467 31.8071 37.67 31.7404 37.67H30.8604C30.7937 37.67 30.7404 37.6567 30.7004 37.63C30.6671 37.5967 30.6337 37.5433 30.6004 37.47C30.5004 37.21 30.3671 37.0233 30.2004 36.91C30.0404 36.7967 29.8337 36.74 29.5804 36.74C29.2404 36.74 28.9737 36.85 28.7804 37.07C28.5871 37.2833 28.4837 37.61 28.4704 38.05L28.4604 38.42L28.4704 38.75C28.4971 39.6233 28.8671 40.06 29.5804 40.06C29.8404 40.06 30.0504 40.0033 30.2104 39.89C30.3704 39.7767 30.5004 39.59 30.6004 39.33C30.6337 39.2567 30.6671 39.2067 30.7004 39.18C30.7404 39.1467 30.7937 39.13 30.8604 39.13H31.7404C31.8071 39.13 31.8637 39.1533 31.9104 39.2C31.9637 39.2467 31.9871 39.3033 31.9804 39.37C31.9671 39.6033 31.8737 39.8533 31.7004 40.12C31.5271 40.3867 31.2604 40.6167 30.9004 40.81C30.5404 41.0033 30.0937 41.1 29.5604 41.1ZM34.5333 41.1C34.1933 41.1 33.8799 41.0333 33.5933 40.9C33.3133 40.76 33.0899 40.5733 32.9233 40.34C32.7633 40.1067 32.6833 39.85 32.6833 39.57C32.6833 39.1167 32.8666 38.75 33.2333 38.47C33.5999 38.19 34.1033 38 34.7433 37.9L36.1133 37.7V37.49C36.1133 37.1967 36.0399 36.9767 35.8933 36.83C35.7466 36.6833 35.5099 36.61 35.1833 36.61C34.9633 36.61 34.7833 36.6533 34.6433 36.74C34.5099 36.82 34.4033 36.9 34.3233 36.98C34.2433 37.0667 34.1899 37.1233 34.1633 37.15C34.1366 37.23 34.0866 37.27 34.0133 37.27H33.2433C33.1833 37.27 33.1299 37.25 33.0833 37.21C33.0433 37.17 33.0233 37.1167 33.0233 37.05C33.0299 36.8833 33.1099 36.6933 33.2633 36.48C33.4233 36.2667 33.6666 36.0833 33.9933 35.93C34.3199 35.7767 34.7199 35.7 35.1933 35.7C35.9799 35.7 36.5533 35.8767 36.9133 36.23C37.2733 36.5833 37.4533 37.0467 37.4533 37.62V40.76C37.4533 40.8267 37.4299 40.8833 37.3833 40.93C37.3433 40.9767 37.2866 41 37.2133 41H36.4033C36.3366 41 36.2799 40.9767 36.2333 40.93C36.1866 40.8833 36.1633 40.8267 36.1633 40.76V40.37C36.0166 40.5833 35.8066 40.76 35.5333 40.9C35.2666 41.0333 34.9333 41.1 34.5333 41.1ZM34.8733 40.15C35.2399 40.15 35.5399 40.03 35.7733 39.79C36.0066 39.55 36.1233 39.2 36.1233 38.74V38.53L35.1233 38.69C34.7366 38.75 34.4433 38.8467 34.2433 38.98C34.0499 39.1133 33.9533 39.2767 33.9533 39.47C33.9533 39.6833 34.0433 39.85 34.2233 39.97C34.4033 40.09 34.6199 40.15 34.8733 40.15ZM41.0373 41C40.4307 41 39.974 40.8433 39.6673 40.53C39.3673 40.21 39.2173 39.7433 39.2173 39.13V36.86H38.4273C38.3607 36.86 38.304 36.8367 38.2573 36.79C38.2107 36.7367 38.1873 36.6767 38.1873 36.61V36.04C38.1873 35.9733 38.2107 35.9167 38.2573 35.87C38.304 35.8233 38.3607 35.8 38.4273 35.8H39.2173V34.14C39.2173 34.0667 39.2407 34.01 39.2873 33.97C39.334 33.9233 39.3907 33.9 39.4573 33.9H40.2673C40.3407 33.9 40.3973 33.9233 40.4373 33.97C40.484 34.01 40.5073 34.0667 40.5073 34.14V35.8H41.7573C41.8307 35.8 41.8873 35.8233 41.9273 35.87C41.974 35.91 41.9973 35.9667 41.9973 36.04V36.61C41.9973 36.6833 41.974 36.7433 41.9273 36.79C41.8807 36.8367 41.824 36.86 41.7573 36.86H40.5073V39.03C40.5073 39.3167 40.5573 39.5333 40.6573 39.68C40.7573 39.8267 40.924 39.9 41.1573 39.9H41.8473C41.914 39.9 41.9707 39.9233 42.0173 39.97C42.064 40.0167 42.0873 40.0733 42.0873 40.14V40.76C42.0873 40.8267 42.064 40.8833 42.0173 40.93C41.9773 40.9767 41.9207 41 41.8473 41H41.0373ZM43.1745 34.94C43.1078 34.94 43.0511 34.9167 43.0045 34.87C42.9578 34.8233 42.9345 34.7667 42.9345 34.7V33.98C42.9345 33.9133 42.9578 33.8567 43.0045 33.81C43.0511 33.7633 43.1078 33.74 43.1745 33.74H44.0845C44.1511 33.74 44.2078 33.7633 44.2545 33.81C44.3078 33.8567 44.3345 33.9133 44.3345 33.98V34.7C44.3345 34.7667 44.3111 34.8233 44.2645 34.87C44.2178 34.9167 44.1578 34.94 44.0845 34.94H43.1745ZM43.2145 41C43.1478 41 43.0911 40.9767 43.0445 40.93C42.9978 40.8833 42.9745 40.8267 42.9745 40.76V36.04C42.9745 35.9733 42.9978 35.9167 43.0445 35.87C43.0911 35.8233 43.1478 35.8 43.2145 35.8H44.0445C44.1178 35.8 44.1745 35.8233 44.2145 35.87C44.2611 35.91 44.2845 35.9667 44.2845 36.04V40.76C44.2845 40.8267 44.2611 40.8833 44.2145 40.93C44.1745 40.9767 44.1178 41 44.0445 41H43.2145ZM47.9112 41.1C47.1312 41.1 46.5278 40.9 46.1012 40.5C45.6745 40.0933 45.4445 39.54 45.4112 38.84L45.4012 38.4L45.4112 37.96C45.4445 37.2667 45.6778 36.7167 46.1112 36.31C46.5445 35.9033 47.1445 35.7 47.9112 35.7C48.6778 35.7 49.2778 35.9033 49.7112 36.31C50.1445 36.7167 50.3778 37.2667 50.4112 37.96C50.4178 38.04 50.4212 38.1867 50.4212 38.4C50.4212 38.6133 50.4178 38.76 50.4112 38.84C50.3778 39.54 50.1478 40.0933 49.7212 40.5C49.2945 40.9 48.6912 41.1 47.9112 41.1ZM47.9112 40.11C48.2645 40.11 48.5378 40 48.7312 39.78C48.9245 39.5533 49.0312 39.2233 49.0512 38.79C49.0578 38.7233 49.0612 38.5933 49.0612 38.4C49.0612 38.2067 49.0578 38.0767 49.0512 38.01C49.0312 37.5767 48.9245 37.25 48.7312 37.03C48.5378 36.8033 48.2645 36.69 47.9112 36.69C47.5578 36.69 47.2845 36.8033 47.0912 37.03C46.8978 37.25 46.7912 37.5767 46.7712 38.01L46.7612 38.4L46.7712 38.79C46.7912 39.2233 46.8978 39.5533 47.0912 39.78C47.2845 40 47.5578 40.11 47.9112 40.11ZM51.7691 41C51.7025 41 51.6458 40.9767 51.5991 40.93C51.5525 40.8833 51.5291 40.8267 51.5291 40.76V36.04C51.5291 35.9733 51.5525 35.9167 51.5991 35.87C51.6458 35.8233 51.7025 35.8 51.7691 35.8H52.5891C52.6558 35.8 52.7125 35.8233 52.7591 35.87C52.8058 35.9167 52.8291 35.9733 52.8291 36.04V36.45C53.2225 35.95 53.7791 35.7 54.4991 35.7C55.1125 35.7 55.5991 35.9033 55.9591 36.31C56.3191 36.71 56.4991 37.2567 56.4991 37.95V40.76C56.4991 40.8267 56.4758 40.8833 56.4291 40.93C56.3891 40.9767 56.3325 41 56.2591 41H55.3791C55.3125 41 55.2558 40.9767 55.2091 40.93C55.1625 40.8833 55.1391 40.8267 55.1391 40.76V38.01C55.1391 37.6167 55.0425 37.3133 54.8491 37.1C54.6625 36.88 54.3891 36.77 54.0291 36.77C53.6758 36.77 53.3958 36.88 53.1891 37.1C52.9891 37.32 52.8891 37.6233 52.8891 38.01V40.76C52.8891 40.8267 52.8658 40.8833 52.8191 40.93C52.7791 40.9767 52.7225 41 52.6491 41H51.7691Z" fill="#007FFF"/>
<path d="M29.1037 0.00473519C28.6939 0.0520007 28.3531 0.441065 28.3599 0.853585V1.74598C26.7992 1.9409 25.4625 2.67058 24.4574 3.70613C23.2763 4.92273 22.5306 6.54228 22.2175 8.26473L21.0974 14.4247C20.865 15.7028 20.3912 15.9652 19.715 16.4109C19.3768 16.6337 18.9644 16.8714 18.6037 17.2947C18.243 17.7179 18 18.3361 18 19.0535C18 20.2798 19.0135 21.2935 20.24 21.2935H25.0088C25.1541 23.4758 26.982 25.2134 29.2 25.2134C31.4179 25.2134 33.2459 23.4757 33.3912 21.2935H38.1599C39.3865 21.2935 40.4 20.2799 40.4 19.0535C40.4 18.3361 40.157 17.7179 39.7963 17.2947C39.4355 16.8714 39.0232 16.6337 38.6849 16.4109C38.0088 15.9652 37.5349 15.7029 37.3025 14.4247L36.1824 8.26473C35.8693 6.54228 35.1236 4.92273 33.9426 3.70613C32.9375 2.67058 31.6008 1.94088 30.04 1.74598V0.853585C30.048 0.376825 29.5773 -0.0499148 29.1037 0.00473519ZM26.7324 21.2935H31.6675C31.5253 22.5609 30.5109 23.5333 29.1999 23.5333C27.889 23.5333 26.8746 22.5609 26.7324 21.2935Z" fill="#007FFF"/>
<circle cx="35.7002" cy="6.61353" r="3.75" fill="#ED4A4A" stroke="white" stroke-width="1.5"/>
</svg>
