<svg width="50" height="46" viewBox="0 0 50 46" fill="none" xmlns="http://www.w3.org/2000/svg">
<path d="M36.1417 14.8966V15.0216H36.2667H37.2C38.675 15.0216 39.875 16.2191 39.875 17.6897V19.5517C39.875 21.0223 38.675 22.2198 37.2 22.2198H36.2667H36.1417V22.3448V24.2069C36.1417 25.6775 34.9417 26.875 33.4667 26.875H18.5333C17.0583 26.875 15.8583 25.6775 15.8583 24.2069V22.3448V22.2198H15.7333H14.8C13.325 22.2198 12.125 21.0223 12.125 19.5517V17.6897C12.125 16.2191 13.325 15.0216 14.8 15.0216H15.7333H15.8583V14.8966V13.0345C15.8583 11.5639 17.0583 10.3664 18.5333 10.3664H25.0667H25.1917V10.2414V7.31607V7.21934L25.098 7.19507C23.5454 6.79255 22.3917 5.39548 22.3917 3.72414C22.3917 1.7396 24.0098 0.125 26 0.125C27.9902 0.125 29.6083 1.7396 29.6083 3.72414C29.6083 5.39548 28.4546 6.79255 26.902 7.19507L26.8083 7.21934V7.31607V10.2414V10.3664H26.9333H33.4667C34.9417 10.3664 36.1417 11.5639 36.1417 13.0345V14.8966ZM15.7333 20.6078H15.8583V20.4828V16.7586V16.6336H15.7333H14.8C14.2171 16.6336 13.7417 17.1063 13.7417 17.6897V19.5517C13.7417 20.1351 14.2171 20.6078 14.8 20.6078H15.7333ZM36.1417 20.4828V20.6078H36.2667H37.2C37.7829 20.6078 38.2583 20.1351 38.2583 19.5517V17.6897C38.2583 17.1063 37.7829 16.6336 37.2 16.6336H36.2667H36.1417V16.7586V20.4828ZM26 1.73707C24.9018 1.73707 24.0083 2.62788 24.0083 3.72414C24.0083 4.82039 24.9018 5.71121 26 5.71121C27.0982 5.71121 27.9917 4.82039 27.9917 3.72414C27.9917 2.62788 27.0982 1.73707 26 1.73707ZM25.1917 16.7586C25.1917 15.1494 23.8791 13.8405 22.2667 13.8405C20.6542 13.8405 19.3417 15.1494 19.3417 16.7586C19.3417 18.3679 20.6542 19.6767 22.2667 19.6767C23.8791 19.6767 25.1917 18.3679 25.1917 16.7586ZM22.2667 14.0905C23.7417 14.0905 24.9417 15.288 24.9417 16.7586C24.9417 18.2292 23.7417 19.4267 22.2667 19.4267C20.7917 19.4267 19.5917 18.2292 19.5917 16.7586C19.5917 15.288 20.7917 14.0905 22.2667 14.0905ZM21.4583 16.7586C21.4583 16.3141 21.8211 15.9526 22.2667 15.9526C22.7123 15.9526 23.075 16.3141 23.075 16.7586C23.075 17.2031 22.7123 17.5647 22.2667 17.5647C21.8211 17.5647 21.4583 17.2031 21.4583 16.7586ZM22.2667 15.7026C21.6837 15.7026 21.2083 16.1753 21.2083 16.7586C21.2083 17.342 21.6837 17.8147 22.2667 17.8147C22.8496 17.8147 23.325 17.342 23.325 16.7586C23.325 16.1753 22.8496 15.7026 22.2667 15.7026ZM29.7333 13.8405C28.1209 13.8405 26.8083 15.1494 26.8083 16.7586C26.8083 18.3679 28.1209 19.6767 29.7333 19.6767C31.3458 19.6767 32.6583 18.3679 32.6583 16.7586C32.6583 15.1494 31.3458 13.8405 29.7333 13.8405ZM27.0583 16.7586C27.0583 15.288 28.2583 14.0905 29.7333 14.0905C31.2083 14.0905 32.4083 15.288 32.4083 16.7586C32.4083 18.2292 31.2083 19.4267 29.7333 19.4267C28.2583 19.4267 27.0583 18.2292 27.0583 16.7586ZM29.7333 17.5647C29.2877 17.5647 28.925 17.2031 28.925 16.7586C28.925 16.3141 29.2877 15.9526 29.7333 15.9526C30.1789 15.9526 30.5417 16.3141 30.5417 16.7586C30.5417 17.2031 30.1789 17.5647 29.7333 17.5647ZM28.675 16.7586C28.675 17.342 29.1504 17.8147 29.7333 17.8147C30.3163 17.8147 30.7917 17.342 30.7917 16.7586C30.7917 16.1753 30.3163 15.7026 29.7333 15.7026C29.1504 15.7026 28.675 16.1753 28.675 16.7586ZM29.7333 23.4009C30.3172 23.4009 30.7917 22.9291 30.7917 22.3448C30.7917 21.7606 30.3172 21.2888 29.7333 21.2888H22.2667C21.6828 21.2888 21.2083 21.7606 21.2083 22.3448C21.2083 22.9291 21.6828 23.4009 22.2667 23.4009H29.7333Z" fill="#007FFF" stroke="white" stroke-width="0.25"/>
<rect x="36.25" y="29.25" width="13.5" height="12.5" rx="1.75" fill="#007FFF" stroke="#007FFF" stroke-width="0.5"/>
<path d="M1.02 40C0.953333 40 0.896667 39.9767 0.85 39.93C0.803333 39.8833 0.78 39.8267 0.78 39.76V33.24C0.78 33.1733 0.803333 33.1167 0.85 33.07C0.896667 33.0233 0.953333 33 1.02 33H1.96C2.03333 33 2.09 33.0233 2.13 33.07C2.17667 33.1167 2.2 33.1733 2.2 33.24V39.76C2.2 39.8267 2.17667 39.8833 2.13 39.93C2.09 39.9767 2.03333 40 1.96 40H1.02ZM3.88828 40C3.82161 40 3.76495 39.9767 3.71828 39.93C3.67161 39.8833 3.64828 39.8267 3.64828 39.76V35.04C3.64828 34.9733 3.67161 34.9167 3.71828 34.87C3.76495 34.8233 3.82161 34.8 3.88828 34.8H4.70828C4.77495 34.8 4.83161 34.8233 4.87828 34.87C4.92495 34.9167 4.94828 34.9733 4.94828 35.04V35.45C5.12161 35.2367 5.34161 35.06 5.60828 34.92C5.88161 34.7733 6.21828 34.7 6.61828 34.7C7.02495 34.7 7.37828 34.7933 7.67828 34.98C7.97828 35.16 8.20828 35.4167 8.36828 35.75C8.53495 36.0833 8.61828 36.4833 8.61828 36.95V39.76C8.61828 39.8267 8.59495 39.8833 8.54828 39.93C8.50161 39.9767 8.44495 40 8.37828 40H7.49828C7.43161 40 7.37495 39.9767 7.32828 39.93C7.28161 39.8833 7.25828 39.8267 7.25828 39.76V37.01C7.25828 36.6233 7.16161 36.32 6.96828 36.1C6.78161 35.88 6.50828 35.77 6.14828 35.77C5.80161 35.77 5.52495 35.88 5.31828 36.1C5.11161 36.32 5.00828 36.6233 5.00828 37.01V39.76C5.00828 39.8267 4.98495 39.8833 4.93828 39.93C4.89161 39.9767 4.83495 40 4.76828 40H3.88828ZM11.8585 40.1C11.4585 40.1 11.1152 40.0533 10.8285 39.96C10.5485 39.8667 10.3185 39.75 10.1385 39.61C9.95852 39.47 9.82518 39.33 9.73852 39.19C9.65185 39.05 9.60518 38.9333 9.59852 38.84C9.59185 38.7667 9.61185 38.71 9.65852 38.67C9.71185 38.6233 9.76852 38.6 9.82852 38.6H10.6185C10.6452 38.6 10.6685 38.6033 10.6885 38.61C10.7085 38.6167 10.7352 38.6367 10.7685 38.67C10.8552 38.7433 10.9452 38.82 11.0385 38.9C11.1385 38.98 11.2552 39.05 11.3885 39.11C11.5218 39.1633 11.6885 39.19 11.8885 39.19C12.1485 39.19 12.3652 39.14 12.5385 39.04C12.7185 38.9333 12.8085 38.7833 12.8085 38.59C12.8085 38.45 12.7685 38.3367 12.6885 38.25C12.6152 38.1633 12.4752 38.0867 12.2685 38.02C12.0618 37.9467 11.7685 37.87 11.3885 37.79C11.0152 37.7033 10.7052 37.5933 10.4585 37.46C10.2118 37.3267 10.0285 37.16 9.90852 36.96C9.78852 36.76 9.72852 36.5267 9.72852 36.26C9.72852 36 9.80518 35.7533 9.95852 35.52C10.1185 35.28 10.3518 35.0833 10.6585 34.93C10.9718 34.7767 11.3585 34.7 11.8185 34.7C12.1785 34.7 12.4918 34.7467 12.7585 34.84C13.0252 34.9267 13.2452 35.0367 13.4185 35.17C13.5985 35.3033 13.7352 35.44 13.8285 35.58C13.9218 35.7133 13.9718 35.83 13.9785 35.93C13.9852 36.0033 13.9652 36.0633 13.9185 36.11C13.8718 36.15 13.8185 36.17 13.7585 36.17H13.0185C12.9852 36.17 12.9552 36.1633 12.9285 36.15C12.9018 36.1367 12.8752 36.12 12.8485 36.1C12.7752 36.0333 12.6952 35.9633 12.6085 35.89C12.5218 35.8167 12.4152 35.7533 12.2885 35.7C12.1685 35.64 12.0085 35.61 11.8085 35.61C11.5552 35.61 11.3618 35.6667 11.2285 35.78C11.0952 35.8867 11.0285 36.0233 11.0285 36.19C11.0285 36.3033 11.0585 36.4033 11.1185 36.49C11.1852 36.57 11.3152 36.6467 11.5085 36.72C11.7018 36.7933 11.9952 36.87 12.3885 36.95C12.8352 37.03 13.1885 37.15 13.4485 37.31C13.7152 37.4633 13.9018 37.6433 14.0085 37.85C14.1218 38.05 14.1785 38.2733 14.1785 38.52C14.1785 38.82 14.0885 39.09 13.9085 39.33C13.7352 39.57 13.4752 39.76 13.1285 39.9C12.7885 40.0333 12.3652 40.1 11.8585 40.1ZM15.4508 40C15.3841 40 15.3274 39.9767 15.2808 39.93C15.2341 39.8833 15.2108 39.8267 15.2108 39.76V35.04C15.2108 34.9733 15.2341 34.9167 15.2808 34.87C15.3274 34.8233 15.3841 34.8 15.4508 34.8H16.2808C16.3541 34.8 16.4108 34.8233 16.4508 34.87C16.4974 34.9167 16.5208 34.9733 16.5208 35.04V39.76C16.5208 39.8267 16.4974 39.8833 16.4508 39.93C16.4108 39.9767 16.3541 40 16.2808 40H15.4508ZM15.4108 33.94C15.3374 33.94 15.2774 33.92 15.2308 33.88C15.1908 33.8333 15.1708 33.7733 15.1708 33.7V32.98C15.1708 32.9133 15.1908 32.8567 15.2308 32.81C15.2774 32.7633 15.3374 32.74 15.4108 32.74H16.3208C16.3941 32.74 16.4541 32.7633 16.5008 32.81C16.5474 32.8567 16.5708 32.9133 16.5708 32.98V33.7C16.5708 33.7733 16.5474 33.8333 16.5008 33.88C16.4541 33.92 16.3941 33.94 16.3208 33.94H15.4108ZM20.1975 42.2C19.7108 42.2 19.3108 42.1367 18.9975 42.01C18.6842 41.8833 18.4375 41.73 18.2575 41.55C18.0775 41.37 17.9475 41.19 17.8675 41.01C17.7942 40.8367 17.7542 40.7 17.7475 40.6C17.7408 40.5333 17.7608 40.4733 17.8075 40.42C17.8608 40.3733 17.9208 40.35 17.9875 40.35H18.8575C18.9242 40.35 18.9775 40.3633 19.0175 40.39C19.0575 40.4233 19.0908 40.48 19.1175 40.56C19.1575 40.6467 19.2108 40.74 19.2775 40.84C19.3442 40.94 19.4442 41.0233 19.5775 41.09C19.7175 41.1633 19.9075 41.2 20.1475 41.2C20.4008 41.2 20.6142 41.1633 20.7875 41.09C20.9608 41.0167 21.0908 40.8933 21.1775 40.72C21.2708 40.5467 21.3175 40.3067 21.3175 40V39.32C21.1575 39.5133 20.9508 39.67 20.6975 39.79C20.4508 39.91 20.1442 39.97 19.7775 39.97C19.4175 39.97 19.1075 39.9133 18.8475 39.8C18.5875 39.68 18.3708 39.5167 18.1975 39.31C18.0242 39.0967 17.8908 38.8467 17.7975 38.56C17.7108 38.2733 17.6608 37.9567 17.6475 37.61C17.6408 37.43 17.6408 37.25 17.6475 37.07C17.6608 36.7367 17.7108 36.4267 17.7975 36.14C17.8842 35.8533 18.0142 35.6033 18.1875 35.39C18.3675 35.17 18.5875 35 18.8475 34.88C19.1075 34.76 19.4175 34.7 19.7775 34.7C20.1575 34.7 20.4775 34.7733 20.7375 34.92C20.9975 35.06 21.2108 35.2367 21.3775 35.45V35.05C21.3775 34.9767 21.4008 34.9167 21.4475 34.87C21.4942 34.8233 21.5508 34.8 21.6175 34.8H22.4275C22.4942 34.8 22.5508 34.8233 22.5975 34.87C22.6442 34.9167 22.6675 34.9767 22.6675 35.05L22.6775 39.87C22.6775 40.35 22.5875 40.7633 22.4075 41.11C22.2275 41.4567 21.9542 41.7233 21.5875 41.91C21.2275 42.1033 20.7642 42.2 20.1975 42.2ZM20.1475 38.91C20.4208 38.91 20.6408 38.85 20.8075 38.73C20.9742 38.61 21.0975 38.4533 21.1775 38.26C21.2575 38.0667 21.3042 37.87 21.3175 37.67C21.3242 37.5833 21.3275 37.4733 21.3275 37.34C21.3275 37.2067 21.3242 37.1 21.3175 37.02C21.3042 36.8133 21.2575 36.6167 21.1775 36.43C21.0975 36.2367 20.9742 36.08 20.8075 35.96C20.6408 35.8333 20.4208 35.77 20.1475 35.77C19.8742 35.77 19.6542 35.8333 19.4875 35.96C19.3208 36.08 19.2008 36.24 19.1275 36.44C19.0608 36.64 19.0208 36.86 19.0075 37.1C18.9942 37.26 18.9942 37.4233 19.0075 37.59C19.0208 37.8233 19.0608 38.0433 19.1275 38.25C19.2008 38.45 19.3208 38.61 19.4875 38.73C19.6542 38.85 19.8742 38.91 20.1475 38.91ZM24.2596 40C24.1929 40 24.1363 39.9767 24.0896 39.93C24.0429 39.8833 24.0196 39.8267 24.0196 39.76V33.14C24.0196 33.0733 24.0429 33.0167 24.0896 32.97C24.1363 32.9233 24.1929 32.9 24.2596 32.9H25.1496C25.2229 32.9 25.2796 32.9233 25.3196 32.97C25.3663 33.0167 25.3896 33.0733 25.3896 33.14V35.42C25.5696 35.2067 25.7896 35.0333 26.0496 34.9C26.3096 34.7667 26.6296 34.7 27.0096 34.7C27.4163 34.7 27.7696 34.7933 28.0696 34.98C28.3763 35.16 28.6129 35.4167 28.7796 35.75C28.9463 36.0833 29.0296 36.4833 29.0296 36.95V39.76C29.0296 39.8267 29.0063 39.8833 28.9596 39.93C28.9129 39.9767 28.8563 40 28.7896 40H27.8896C27.8229 40 27.7663 39.9767 27.7196 39.93C27.6729 39.8833 27.6496 39.8267 27.6496 39.76V37.01C27.6496 36.6233 27.5529 36.32 27.3596 36.1C27.1729 35.88 26.8996 35.77 26.5396 35.77C26.1929 35.77 25.9129 35.88 25.6996 36.1C25.4929 36.32 25.3896 36.6233 25.3896 37.01V39.76C25.3896 39.8267 25.3663 39.8833 25.3196 39.93C25.2796 39.9767 25.2229 40 25.1496 40H24.2596ZM32.5901 40C32.1901 40 31.8534 39.93 31.5801 39.79C31.3067 39.65 31.1034 39.4433 30.9701 39.17C30.8367 38.89 30.7701 38.5433 30.7701 38.13V35.86H29.9801C29.9134 35.86 29.8567 35.8367 29.8101 35.79C29.7634 35.7433 29.7401 35.6867 29.7401 35.62V35.04C29.7401 34.9733 29.7634 34.9167 29.8101 34.87C29.8567 34.8233 29.9134 34.8 29.9801 34.8H30.7701V33.14C30.7701 33.0733 30.7901 33.0167 30.8301 32.97C30.8767 32.9233 30.9367 32.9 31.0101 32.9H31.8201C31.8867 32.9 31.9434 32.9233 31.9901 32.97C32.0367 33.0167 32.0601 33.0733 32.0601 33.14V34.8H33.3101C33.3767 34.8 33.4334 34.8233 33.4801 34.87C33.5267 34.9167 33.5501 34.9733 33.5501 35.04V35.62C33.5501 35.6867 33.5267 35.7433 33.4801 35.79C33.4334 35.8367 33.3767 35.86 33.3101 35.86H32.0601V38.03C32.0601 38.3033 32.1067 38.5167 32.2001 38.67C32.3001 38.8233 32.4701 38.9 32.7101 38.9H33.4001C33.4667 38.9 33.5234 38.9233 33.5701 38.97C33.6167 39.0167 33.6401 39.0733 33.6401 39.14V39.76C33.6401 39.8267 33.6167 39.8833 33.5701 39.93C33.5234 39.9767 33.4667 40 33.4001 40H32.5901Z" fill="#007FFF"/>
<path d="M38.4 39C38.3467 39 38.3 38.98 38.26 38.94C38.22 38.9 38.2 38.8533 38.2 38.8C38.2 38.7667 38.2033 38.73 38.21 38.69L40.69 32.22C40.7167 32.1533 40.7533 32.1 40.8 32.06C40.8467 32.02 40.9167 32 41.01 32H41.69C41.7767 32 41.8433 32.02 41.89 32.06C41.9433 32.1 41.9833 32.1533 42.01 32.22L44.48 38.69C44.4933 38.73 44.5 38.7667 44.5 38.8C44.5 38.8533 44.48 38.9 44.44 38.94C44.4 38.98 44.3533 39 44.3 39H43.79C43.71 39 43.65 38.98 43.61 38.94C43.5767 38.9 43.5533 38.8633 43.54 38.83L42.99 37.41H39.71L39.16 38.83C39.1533 38.8633 39.13 38.9 39.09 38.94C39.05 38.98 38.99 39 38.91 39H38.4ZM40 36.55H42.7L41.35 33L40 36.55ZM45.7992 39C45.7259 39 45.6692 38.98 45.6292 38.94C45.5892 38.8933 45.5692 38.8367 45.5692 38.77V32.23C45.5692 32.1633 45.5892 32.11 45.6292 32.07C45.6692 32.0233 45.7259 32 45.7992 32H46.3292C46.3959 32 46.4492 32.0233 46.4892 32.07C46.5359 32.11 46.5592 32.1633 46.5592 32.23V38.77C46.5592 38.8367 46.5359 38.8933 46.4892 38.94C46.4492 38.98 46.3959 39 46.3292 39H45.7992Z" fill="white"/>
</svg>
