<svg width="32" height="50" viewBox="0 0 28 45" fill="none" xmlns="http://www.w3.org/2000/svg">
<path d="M26.6896 9.73899L14.8285 0.185144C14.5278 -0.0569915 14.0999 -0.062107 13.7935 0.17264L1.32623 9.72649C0.960227 10.007 0.892047 10.5296 1.17333 10.8943C1.33793 11.1074 1.58583 11.2194 1.8363 11.2194C2.01403 11.2194 2.19346 11.1631 2.34523 11.0466L4.23973 9.59462V20.2654C4.23973 21.6613 5.37968 22.7967 6.78066 22.7967H21.2186C22.6199 22.7967 23.7596 21.6611 23.7596 20.2654V9.52073L25.6384 11.0341C25.9975 11.3234 26.5236 11.2677 26.8137 10.9102C27.1044 10.5524 27.0488 10.028 26.6896 9.73899ZM9.05515 17.3774H14.9381C15.3996 17.3774 15.7739 17.7502 15.7739 18.2101C15.7739 18.6699 15.3996 19.0428 14.9381 19.0428H9.05515C8.59357 19.0428 8.2193 18.6699 8.2193 18.2101C8.2193 17.7502 8.59357 17.3774 9.05515 17.3774ZM16.5182 18.2101C16.5182 17.7502 16.8925 17.3774 17.354 17.3774H18.9453C19.4069 17.3774 19.7811 17.7502 19.7811 18.2101C19.7811 18.6699 19.4069 19.0428 18.9453 19.0428H17.354C16.8925 19.0428 16.5182 18.6699 16.5182 18.2101Z" fill="#007FFF"/>
<path d="M1.02 39C0.953333 39 0.896667 38.9767 0.85 38.93C0.803333 38.8833 0.78 38.8267 0.78 38.76V32.25C0.78 32.1767 0.8 32.1167 0.84 32.07C0.886667 32.0233 0.946667 32 1.02 32H1.93C2.00333 32 2.06 32.0233 2.1 32.07C2.14667 32.1167 2.17 32.1767 2.17 32.25V34.83H5.12V32.25C5.12 32.1767 5.14 32.1167 5.18 32.07C5.22667 32.0233 5.28667 32 5.36 32H6.26C6.33333 32 6.39333 32.0233 6.44 32.07C6.48667 32.1167 6.51 32.1767 6.51 32.25V38.76C6.51 38.8333 6.48667 38.8933 6.44 38.94C6.39333 38.98 6.33333 39 6.26 39H5.36C5.29333 39 5.23667 38.9767 5.19 38.93C5.14333 38.8833 5.12 38.8267 5.12 38.76V36.08H2.17V38.76C2.17 38.8267 2.14667 38.8833 2.1 38.93C2.06 38.9767 2.00333 39 1.93 39H1.02ZM10.2452 39.1C9.46516 39.1 8.86182 38.9 8.43516 38.5C8.00849 38.0933 7.77849 37.54 7.74516 36.84L7.73516 36.4L7.74516 35.96C7.77849 35.2667 8.01182 34.7167 8.44516 34.31C8.87849 33.9033 9.47849 33.7 10.2452 33.7C11.0118 33.7 11.6118 33.9033 12.0452 34.31C12.4785 34.7167 12.7118 35.2667 12.7452 35.96C12.7518 36.04 12.7552 36.1867 12.7552 36.4C12.7552 36.6133 12.7518 36.76 12.7452 36.84C12.7118 37.54 12.4818 38.0933 12.0552 38.5C11.6285 38.9 11.0252 39.1 10.2452 39.1ZM10.2452 38.11C10.5985 38.11 10.8718 38 11.0652 37.78C11.2585 37.5533 11.3652 37.2233 11.3852 36.79C11.3918 36.7233 11.3952 36.5933 11.3952 36.4C11.3952 36.2067 11.3918 36.0767 11.3852 36.01C11.3652 35.5767 11.2585 35.25 11.0652 35.03C10.8718 34.8033 10.5985 34.69 10.2452 34.69C9.89182 34.69 9.61849 34.8033 9.42516 35.03C9.23182 35.25 9.12516 35.5767 9.10516 36.01L9.09516 36.4L9.10516 36.79C9.12516 37.2233 9.23182 37.5533 9.42516 37.78C9.61849 38 9.89182 38.11 10.2452 38.11ZM14.1031 39C14.0365 39 13.9798 38.9767 13.9331 38.93C13.8865 38.8833 13.8631 38.8267 13.8631 38.76V34.04C13.8631 33.9733 13.8865 33.9167 13.9331 33.87C13.9798 33.8233 14.0365 33.8 14.1031 33.8H14.8831C14.9498 33.8 15.0065 33.8233 15.0531 33.87C15.0998 33.9167 15.1231 33.9733 15.1231 34.04V34.38C15.4698 33.9267 15.9531 33.7 16.5731 33.7C17.3131 33.7 17.8298 33.9967 18.1231 34.59C18.2831 34.3233 18.5098 34.11 18.8031 33.95C19.0965 33.7833 19.4131 33.7 19.7531 33.7C20.2998 33.7 20.7465 33.8867 21.0931 34.26C21.4398 34.6333 21.6131 35.1767 21.6131 35.89V38.76C21.6131 38.8267 21.5898 38.8833 21.5431 38.93C21.5031 38.9767 21.4465 39 21.3731 39H20.5531C20.4865 39 20.4298 38.9767 20.3831 38.93C20.3365 38.8833 20.3131 38.8267 20.3131 38.76V35.97C20.3131 35.55 20.2231 35.2467 20.0431 35.06C19.8698 34.8667 19.6365 34.77 19.3431 34.77C19.0831 34.77 18.8598 34.8667 18.6731 35.06C18.4931 35.2533 18.4031 35.5567 18.4031 35.97V38.76C18.4031 38.8267 18.3798 38.8833 18.3331 38.93C18.2865 38.9767 18.2298 39 18.1631 39H17.3431C17.2765 39 17.2198 38.9767 17.1731 38.93C17.1265 38.8833 17.1031 38.8267 17.1031 38.76V35.97C17.1031 35.55 17.0098 35.2467 16.8231 35.06C16.6431 34.8667 16.4131 34.77 16.1331 34.77C15.8665 34.77 15.6398 34.8667 15.4531 35.06C15.2731 35.2533 15.1831 35.5567 15.1831 35.97V38.76C15.1831 38.8267 15.1598 38.8833 15.1131 38.93C15.0665 38.9767 15.0098 39 14.9431 39H14.1031ZM25.1266 39.1C24.3866 39.1 23.7966 38.8867 23.3566 38.46C22.9232 38.0267 22.6932 37.42 22.6666 36.64L22.6566 36.39L22.6666 36.14C22.6999 35.38 22.9332 34.7833 23.3666 34.35C23.8066 33.9167 24.3932 33.7 25.1266 33.7C25.9132 33.7 26.5199 33.94 26.9466 34.42C27.3799 34.9 27.5966 35.54 27.5966 36.34V36.55C27.5966 36.6167 27.5732 36.6733 27.5266 36.72C27.4799 36.7667 27.4199 36.79 27.3466 36.79H24.0266V36.87C24.0399 37.2367 24.1399 37.5467 24.3266 37.8C24.5199 38.0467 24.7832 38.17 25.1166 38.17C25.5099 38.17 25.8266 38.0167 26.0666 37.71C26.1266 37.6367 26.1732 37.59 26.2066 37.57C26.2466 37.55 26.3032 37.54 26.3766 37.54H27.2366C27.2966 37.54 27.3466 37.56 27.3866 37.6C27.4332 37.6333 27.4566 37.6767 27.4566 37.73C27.4566 37.89 27.3599 38.08 27.1666 38.3C26.9799 38.5133 26.7099 38.7 26.3566 38.86C26.0032 39.02 25.5932 39.1 25.1266 39.1ZM26.2366 35.95V35.92C26.2366 35.5267 26.1366 35.21 25.9366 34.97C25.7432 34.73 25.4732 34.61 25.1266 34.61C24.7799 34.61 24.5099 34.73 24.3166 34.97C24.1232 35.21 24.0266 35.5267 24.0266 35.92V35.95H26.2366Z" fill="#007FFF"/>
</svg>
