<svg width="43" height="44" viewBox="0 0 43 44" fill="none" xmlns="http://www.w3.org/2000/svg">
<path d="M1.02 38C0.953333 38 0.896667 37.9767 0.85 37.93C0.803333 37.8833 0.78 37.8267 0.78 37.76V31.25C0.78 31.1767 0.8 31.1167 0.84 31.07C0.886667 31.0233 0.946667 31 1.02 31H3.7C4.5 31 5.13 31.19 5.59 31.57C6.05 31.9433 6.28 32.4933 6.28 33.22C6.28 33.9467 6.05 34.4967 5.59 34.87C5.13667 35.2367 4.50667 35.42 3.7 35.42H2.21V37.76C2.21 37.8267 2.18667 37.8833 2.14 37.93C2.1 37.9767 2.04333 38 1.97 38H1.02ZM3.65 34.31C4.03667 34.31 4.33333 34.22 4.54 34.04C4.74667 33.8533 4.85 33.58 4.85 33.22C4.85 32.8733 4.75 32.6033 4.55 32.41C4.35 32.21 4.05 32.11 3.65 32.11H2.19V34.31H3.65ZM9.48344 38.1C8.70344 38.1 8.1001 37.9 7.67344 37.5C7.24677 37.0933 7.01677 36.54 6.98344 35.84L6.97344 35.4L6.98344 34.96C7.01677 34.2667 7.2501 33.7167 7.68344 33.31C8.11677 32.9033 8.71677 32.7 9.48344 32.7C10.2501 32.7 10.8501 32.9033 11.2834 33.31C11.7168 33.7167 11.9501 34.2667 11.9834 34.96C11.9901 35.04 11.9934 35.1867 11.9934 35.4C11.9934 35.6133 11.9901 35.76 11.9834 35.84C11.9501 36.54 11.7201 37.0933 11.2934 37.5C10.8668 37.9 10.2634 38.1 9.48344 38.1ZM9.48344 37.11C9.83677 37.11 10.1101 37 10.3034 36.78C10.4968 36.5533 10.6034 36.2233 10.6234 35.79C10.6301 35.7233 10.6334 35.5933 10.6334 35.4C10.6334 35.2067 10.6301 35.0767 10.6234 35.01C10.6034 34.5767 10.4968 34.25 10.3034 34.03C10.1101 33.8033 9.83677 33.69 9.48344 33.69C9.1301 33.69 8.85677 33.8033 8.66344 34.03C8.4701 34.25 8.36344 34.5767 8.34344 35.01L8.33344 35.4L8.34344 35.79C8.36344 36.2233 8.4701 36.5533 8.66344 36.78C8.85677 37 9.1301 37.11 9.48344 37.11ZM13.3414 38C13.2747 38 13.2181 37.9767 13.1714 37.93C13.1247 37.8833 13.1014 37.8267 13.1014 37.76V33.05C13.1014 32.9833 13.1247 32.9267 13.1714 32.88C13.2181 32.8267 13.2747 32.8 13.3414 32.8H14.1514C14.2247 32.8 14.2847 32.8233 14.3314 32.87C14.3781 32.9167 14.4014 32.9767 14.4014 33.05V33.46C14.5614 33.2467 14.7614 33.0833 15.0014 32.97C15.2481 32.8567 15.5281 32.8 15.8414 32.8H16.2514C16.3247 32.8 16.3814 32.8233 16.4214 32.87C16.4681 32.91 16.4914 32.9667 16.4914 33.04V33.76C16.4914 33.8267 16.4681 33.8833 16.4214 33.93C16.3814 33.9767 16.3247 34 16.2514 34H15.4714C15.1581 34 14.9114 34.09 14.7314 34.27C14.5514 34.45 14.4614 34.6967 14.4614 35.01V37.76C14.4614 37.8267 14.4381 37.8833 14.3914 37.93C14.3447 37.9767 14.2847 38 14.2114 38H13.3414ZM19.6213 38C19.0147 38 18.558 37.8433 18.2513 37.53C17.9513 37.21 17.8013 36.7433 17.8013 36.13V33.86H17.0113C16.9447 33.86 16.888 33.8367 16.8413 33.79C16.7947 33.7367 16.7713 33.6767 16.7713 33.61V33.04C16.7713 32.9733 16.7947 32.9167 16.8413 32.87C16.888 32.8233 16.9447 32.8 17.0113 32.8H17.8013V31.14C17.8013 31.0667 17.8247 31.01 17.8713 30.97C17.918 30.9233 17.9747 30.9 18.0413 30.9H18.8513C18.9247 30.9 18.9813 30.9233 19.0213 30.97C19.068 31.01 19.0913 31.0667 19.0913 31.14V32.8H20.3413C20.4147 32.8 20.4713 32.8233 20.5113 32.87C20.558 32.91 20.5813 32.9667 20.5813 33.04V33.61C20.5813 33.6833 20.558 33.7433 20.5113 33.79C20.4647 33.8367 20.408 33.86 20.3413 33.86H19.0913V36.03C19.0913 36.3167 19.1413 36.5333 19.2413 36.68C19.3413 36.8267 19.508 36.9 19.7413 36.9H20.4313C20.498 36.9 20.5547 36.9233 20.6013 36.97C20.648 37.0167 20.6713 37.0733 20.6713 37.14V37.76C20.6713 37.8267 20.648 37.8833 20.6013 37.93C20.5613 37.9767 20.5047 38 20.4313 38H19.6213ZM22.3584 38C22.2918 38 22.2351 37.9767 22.1884 37.93C22.1418 37.8833 22.1184 37.8267 22.1184 37.76V33.86H21.3084C21.2418 33.86 21.1851 33.8367 21.1384 33.79C21.0918 33.7367 21.0684 33.6767 21.0684 33.61V33.04C21.0684 32.9733 21.0918 32.9167 21.1384 32.87C21.1851 32.8233 21.2418 32.8 21.3084 32.8H22.1184V32.39C22.1184 31.1967 22.7718 30.6 24.0784 30.6H24.7584C24.8318 30.6 24.8884 30.6233 24.9284 30.67C24.9751 30.71 24.9984 30.7667 24.9984 30.84V31.41C24.9984 31.4833 24.9751 31.5433 24.9284 31.59C24.8818 31.6367 24.8251 31.66 24.7584 31.66H24.1184C23.8584 31.66 23.6751 31.7233 23.5684 31.85C23.4684 31.9767 23.4184 32.1733 23.4184 32.44V32.8H24.6584C24.7318 32.8 24.7884 32.8233 24.8284 32.87C24.8751 32.91 24.8984 32.9667 24.8984 33.04V33.61C24.8984 33.6833 24.8751 33.7433 24.8284 33.79C24.7818 33.8367 24.7251 33.86 24.6584 33.86H23.4184V37.76C23.4184 37.8267 23.3951 37.8833 23.3484 37.93C23.3018 37.9767 23.2451 38 23.1784 38H22.3584ZM27.9209 38.1C27.1409 38.1 26.5376 37.9 26.1109 37.5C25.6843 37.0933 25.4543 36.54 25.4209 35.84L25.4109 35.4L25.4209 34.96C25.4543 34.2667 25.6876 33.7167 26.1209 33.31C26.5543 32.9033 27.1543 32.7 27.9209 32.7C28.6876 32.7 29.2876 32.9033 29.7209 33.31C30.1543 33.7167 30.3876 34.2667 30.4209 34.96C30.4276 35.04 30.4309 35.1867 30.4309 35.4C30.4309 35.6133 30.4276 35.76 30.4209 35.84C30.3876 36.54 30.1576 37.0933 29.7309 37.5C29.3043 37.9 28.7009 38.1 27.9209 38.1ZM27.9209 37.11C28.2743 37.11 28.5476 37 28.7409 36.78C28.9343 36.5533 29.0409 36.2233 29.0609 35.79C29.0676 35.7233 29.0709 35.5933 29.0709 35.4C29.0709 35.2067 29.0676 35.0767 29.0609 35.01C29.0409 34.5767 28.9343 34.25 28.7409 34.03C28.5476 33.8033 28.2743 33.69 27.9209 33.69C27.5676 33.69 27.2943 33.8033 27.1009 34.03C26.9076 34.25 26.8009 34.5767 26.7809 35.01L26.7709 35.4L26.7809 35.79C26.8009 36.2233 26.9076 36.5533 27.1009 36.78C27.2943 37 27.5676 37.11 27.9209 37.11ZM31.7889 38C31.7222 38 31.6656 37.9767 31.6189 37.93C31.5722 37.8833 31.5489 37.8267 31.5489 37.76V31.14C31.5489 31.0667 31.5722 31.01 31.6189 30.97C31.6656 30.9233 31.7222 30.9 31.7889 30.9H32.6189C32.6922 30.9 32.7489 30.9233 32.7889 30.97C32.8356 31.01 32.8589 31.0667 32.8589 31.14V37.76C32.8589 37.8267 32.8356 37.8833 32.7889 37.93C32.7489 37.9767 32.6922 38 32.6189 38H31.7889ZM34.3854 31.94C34.3187 31.94 34.2621 31.9167 34.2154 31.87C34.1687 31.8233 34.1454 31.7667 34.1454 31.7V30.98C34.1454 30.9133 34.1687 30.8567 34.2154 30.81C34.2621 30.7633 34.3187 30.74 34.3854 30.74H35.2954C35.3621 30.74 35.4187 30.7633 35.4654 30.81C35.5187 30.8567 35.5454 30.9133 35.5454 30.98V31.7C35.5454 31.7667 35.5221 31.8233 35.4754 31.87C35.4287 31.9167 35.3687 31.94 35.2954 31.94H34.3854ZM34.4254 38C34.3587 38 34.3021 37.9767 34.2554 37.93C34.2087 37.8833 34.1854 37.8267 34.1854 37.76V33.04C34.1854 32.9733 34.2087 32.9167 34.2554 32.87C34.3021 32.8233 34.3587 32.8 34.4254 32.8H35.2554C35.3287 32.8 35.3854 32.8233 35.4254 32.87C35.4721 32.91 35.4954 32.9667 35.4954 33.04V37.76C35.4954 37.8267 35.4721 37.8833 35.4254 37.93C35.3854 37.9767 35.3287 38 35.2554 38H34.4254ZM39.1221 38.1C38.3421 38.1 37.7388 37.9 37.3121 37.5C36.8854 37.0933 36.6554 36.54 36.6221 35.84L36.6121 35.4L36.6221 34.96C36.6554 34.2667 36.8888 33.7167 37.3221 33.31C37.7554 32.9033 38.3554 32.7 39.1221 32.7C39.8888 32.7 40.4888 32.9033 40.9221 33.31C41.3554 33.7167 41.5888 34.2667 41.6221 34.96C41.6288 35.04 41.6321 35.1867 41.6321 35.4C41.6321 35.6133 41.6288 35.76 41.6221 35.84C41.5888 36.54 41.3588 37.0933 40.9321 37.5C40.5054 37.9 39.9021 38.1 39.1221 38.1ZM39.1221 37.11C39.4754 37.11 39.7488 37 39.9421 36.78C40.1354 36.5533 40.2421 36.2233 40.2621 35.79C40.2688 35.7233 40.2721 35.5933 40.2721 35.4C40.2721 35.2067 40.2688 35.0767 40.2621 35.01C40.2421 34.5767 40.1354 34.25 39.9421 34.03C39.7488 33.8033 39.4754 33.69 39.1221 33.69C38.7688 33.69 38.4954 33.8033 38.3021 34.03C38.1088 34.25 38.0021 34.5767 37.9821 35.01L37.9721 35.4L37.9821 35.79C38.0021 36.2233 38.1088 36.5533 38.3021 36.78C38.4954 37 38.7688 37.11 39.1221 37.11Z" fill="#7452D6"/>
<path d="M31.819 22H12.1807C10.9781 22 10 20.9885 10 19.7448V5.88227C10 4.63861 10.9781 3.62711 12.1807 3.62711H31.8195C33.0219 3.62711 34 4.63857 34 5.88227V19.7448C34 20.9885 33.0217 22 31.819 22Z" fill="#683FDB" stroke="#683FDB" stroke-width="0.5"/>
<path d="M31.819 22H12.1807C10.9781 22 10 20.9885 10 19.7448V5.88226C10 4.63861 10.9781 3.6271 12.1807 3.6271H31.8195C33.0219 3.6271 34 4.63856 34 5.88226V19.7448C34 20.9885 33.0217 22 31.819 22ZM12.1807 4.66122C11.5298 4.66122 11 5.20906 11 5.88221V19.7448C11 20.4179 11.5298 20.9658 12.1807 20.9658H31.8195C32.4702 20.9658 33 20.4179 33 19.7448V5.88221C33 5.20906 32.4702 4.66122 31.8193 4.66122H12.1807Z" fill="#683FDB"/>
<path d="M27.7426 12.5898H23.7505C23.4741 12.5898 23.2504 12.3585 23.2504 12.0726C23.2504 11.7868 23.474 11.5555 23.7505 11.5555H27.7426C29.1512 11.5555 30.4028 10.684 30.9305 9.33586L32.7416 4.70441C32.8452 4.43977 33.1366 4.31148 33.3925 4.41914C33.6484 4.52623 33.772 4.82763 33.6684 5.09229L31.8573 9.72375C31.1757 11.4648 29.5609 12.5898 27.7426 12.5898Z" fill="#683FDB"/>
<path d="M20.3363 12.5898H16.2572C14.4388 12.5898 12.824 11.4648 12.1424 9.72357L10.4184 5.31941C10.3149 5.05478 10.4384 4.75338 10.6943 4.64626C10.9505 4.53917 11.2416 4.66652 11.3452 4.93153L13.0694 9.33569C13.5972 10.6838 14.8487 11.5554 16.2574 11.5554H20.3365C20.6129 11.5554 20.8366 11.7866 20.8366 12.0725C20.8364 12.3585 20.6127 12.5898 20.3363 12.5898Z" fill="#683FDB"/>
<path d="M22.9344 14.6304H21.158C20.4289 14.6304 19.8362 14.0199 19.8362 13.2695V10.8281C19.8362 10.0747 20.4289 9.46175 21.158 9.46175H22.9344C23.66 9.46175 24.2504 10.0747 24.2504 10.8281V13.2695C24.2504 14.0199 23.66 14.6304 22.9344 14.6304ZM21.158 10.4958C20.9773 10.4958 20.8362 10.6417 20.8362 10.8281V13.2695C20.8362 13.4527 20.9773 13.5962 21.158 13.5962H22.9344C23.1087 13.5962 23.2503 13.4497 23.2503 13.2695V10.8281C23.2503 10.6419 23.1116 10.4958 22.9344 10.4958H21.158Z" fill="#7452D6"/>
<path d="M25.6124 4.66123H18.3873C18.1109 4.66123 17.8872 4.42998 17.8872 4.14413V2.4057C17.8872 1.63052 18.5517 1 19.3686 1H24.6312C25.4481 1 26.1126 1.63076 26.1126 2.4057V4.14432C26.1126 4.42996 25.8889 4.66123 25.6124 4.66123ZM18.8868 3.62707H25.1124L25.1122 2.4057C25.1122 2.20426 24.8915 2.03396 24.6307 2.03396H19.3681C19.1073 2.03396 18.8866 2.20408 18.8866 2.4057L18.8868 3.62707Z" fill="#683FDB"/>
<path d="M25.6124 4.66123H18.3873C18.1109 4.66123 17.8872 4.42998 17.8872 4.14413V2.4057C17.8872 1.63052 18.5517 1 19.3686 1H24.6312C25.4481 1 26.1126 1.63076 26.1126 2.4057V4.14432C26.1126 4.42996 25.8889 4.66123 25.6124 4.66123ZM18.8868 3.62707H25.1124L25.1122 2.4057C25.1122 2.20426 24.8915 2.03396 24.6307 2.03396H19.3681C19.1073 2.03396 18.8866 2.20408 18.8866 2.4057L18.8868 3.62707Z" fill="#683FDB"/>
<path d="M31.819 22H12.1807C10.9781 22 10 20.9885 10 19.7448V5.88226C10 4.63861 10.9781 3.6271 12.1807 3.6271H31.8195C33.0219 3.6271 34 4.63856 34 5.88226V19.7448C34 20.9885 33.0217 22 31.819 22ZM12.1807 4.66122C11.5298 4.66122 11 5.20906 11 5.88221V19.7448C11 20.4179 11.5298 20.9658 12.1807 20.9658H31.8195C32.4702 20.9658 33 20.4179 33 19.7448V5.88221C33 5.20906 32.4702 4.66122 31.8193 4.66122H12.1807Z" stroke="#683FDB" stroke-width="0.5"/>
<path d="M27.7426 12.5898H23.7505C23.4741 12.5898 23.2504 12.3585 23.2504 12.0726C23.2504 11.7868 23.474 11.5555 23.7505 11.5555H27.7426C29.1512 11.5555 30.4028 10.684 30.9305 9.33586L32.7416 4.70441C32.8452 4.43977 33.1366 4.31148 33.3925 4.41914C33.6484 4.52623 33.772 4.82763 33.6684 5.09229L31.8573 9.72375C31.1757 11.4648 29.5609 12.5898 27.7426 12.5898Z" stroke="#683FDB" stroke-width="0.5"/>
<path d="M20.3363 12.5898H16.2572C14.4388 12.5898 12.824 11.4648 12.1424 9.72357L10.4184 5.31941C10.3149 5.05478 10.4384 4.75338 10.6943 4.64626C10.9505 4.53917 11.2416 4.66652 11.3452 4.93153L13.0694 9.33569C13.5972 10.6838 14.8487 11.5554 16.2574 11.5554H20.3365C20.6129 11.5554 20.8366 11.7866 20.8366 12.0725C20.8364 12.3585 20.6127 12.5898 20.3363 12.5898Z" stroke="#683FDB" stroke-width="0.5"/>
<path d="M22.9344 14.6304H21.158C20.4289 14.6304 19.8362 14.0199 19.8362 13.2695V10.8281C19.8362 10.0747 20.4289 9.46175 21.158 9.46175H22.9344C23.66 9.46175 24.2504 10.0747 24.2504 10.8281V13.2695C24.2504 14.0199 23.66 14.6304 22.9344 14.6304ZM21.158 10.4958C20.9773 10.4958 20.8362 10.6417 20.8362 10.8281V13.2695C20.8362 13.4527 20.9773 13.5962 21.158 13.5962H22.9344C23.1087 13.5962 23.2503 13.4497 23.2503 13.2695V10.8281C23.2503 10.6419 23.1116 10.4958 22.9344 10.4958H21.158Z" stroke="#7452D6" stroke-width="0.5"/>
<path d="M25.6124 4.66123H18.3873C18.1109 4.66123 17.8872 4.42998 17.8872 4.14413V2.4057C17.8872 1.63052 18.5517 1 19.3686 1H24.6312C25.4481 1 26.1126 1.63076 26.1126 2.4057V4.14432C26.1126 4.42996 25.8889 4.66123 25.6124 4.66123ZM18.8868 3.62707H25.1124L25.1122 2.4057C25.1122 2.20426 24.8915 2.03396 24.6307 2.03396H19.3681C19.1073 2.03396 18.8866 2.20408 18.8866 2.4057L18.8868 3.62707Z" stroke="#683FDB" stroke-width="0.5"/>
<path d="M25.6124 4.66123H18.3873C18.1109 4.66123 17.8872 4.42998 17.8872 4.14413V2.4057C17.8872 1.63052 18.5517 1 19.3686 1H24.6312C25.4481 1 26.1126 1.63076 26.1126 2.4057V4.14432C26.1126 4.42996 25.8889 4.66123 25.6124 4.66123ZM18.8868 3.62707H25.1124L25.1122 2.4057C25.1122 2.20426 24.8915 2.03396 24.6307 2.03396H19.3681C19.1073 2.03396 18.8866 2.20408 18.8866 2.4057L18.8868 3.62707Z" stroke="#683FDB" stroke-width="0.5"/>
<path d="M27.7426 12.5898H23.7505C23.4741 12.5898 23.2505 12.3585 23.2505 12.0727C23.2505 11.7868 23.4741 11.5555 23.7505 11.5555H27.7426C29.1513 11.5555 30.4028 10.684 30.9306 9.33587L31.7719 6.28527C31.8755 6.02063 32.1669 5.89234 32.4229 6C32.6788 6.10709 32.8023 6.40849 32.6987 6.67315L31.8574 9.72375C31.1758 11.4648 29.561 12.5898 27.7426 12.5898Z" fill="white"/>
<path d="M20.3362 12.5898H16.257C14.4387 12.5898 12.8239 11.4648 12.1423 9.72358L11.4958 6.38788C11.3923 6.12325 11.5158 5.82185 11.7717 5.71473C12.0279 5.60764 12.319 5.73499 12.4226 6L13.0693 9.33569C13.597 10.6838 14.8486 11.5554 16.2572 11.5554H20.3364C20.6128 11.5554 20.8364 11.7866 20.8364 12.0725C20.8363 12.3585 20.6126 12.5898 20.3362 12.5898Z" fill="white"/>
<path d="M22.9344 14.6304H21.158C20.4289 14.6304 19.8362 14.0199 19.8362 13.2695V10.8281C19.8362 10.0747 20.4289 9.46176 21.158 9.46176H22.9344C23.66 9.46176 24.2504 10.0747 24.2504 10.8281V13.2695C24.2504 14.0199 23.66 14.6304 22.9344 14.6304ZM21.158 10.4958C20.9773 10.4958 20.8362 10.6417 20.8362 10.8281V13.2695C20.8362 13.4528 20.9773 13.5962 21.158 13.5962H22.9344C23.1087 13.5962 23.2503 13.4498 23.2503 13.2695V10.8281C23.2503 10.6419 23.1116 10.4958 22.9344 10.4958H21.158Z" fill="white"/>
</svg>
