<svg width="62" height="49" viewBox="0 0 62 49" fill="#007FFF" xmlns="http://www.w3.org/2000/svg">
<g opacity="0.6">
<path d="M36.8565 2.00001H28.8452C27.9771 1.99745 27.1434 2.33953 26.5269 2.9509C25.9106 3.56225 25.5617 4.39324 25.5573 5.26152V5.8869H22.1295C21.2999 5.88783 20.5044 6.21802 19.9178 6.80463C19.3312 7.39127 19.0012 8.18676 19.0001 9.01626V22.3949C18.9919 23.4925 19.488 24.533 20.346 25.2177C21.204 25.9023 22.3287 26.155 23.3973 25.9033L28.8078 24.649C28.9415 24.6061 29.0858 24.6103 29.2169 24.6607L34.5811 25.9028C35.6106 26.1418 36.6935 25.914 37.5394 25.2802C38.3855 24.6465 38.9084 23.6715 38.9687 22.6161H39.7385C40.6068 22.6117 41.4377 22.2628 42.0491 21.6466C42.6604 21.0301 43.0026 20.1964 43 19.3281V8.14419C42.9981 6.51517 42.3503 4.95365 41.1986 3.80187C40.0468 2.65009 38.4854 2.00187 36.8565 2.00001ZM37.5875 22.3947C37.5896 23.0707 37.2807 23.7103 36.7496 24.1289C36.2302 24.5464 35.5467 24.6999 34.8985 24.5447L29.5756 23.3136C29.21 23.1974 28.8179 23.1932 28.4502 23.302L23.0806 24.5454C22.4331 24.6981 21.7515 24.5447 21.2319 24.1296C20.701 23.7105 20.3923 23.0709 20.3944 22.3947V10.2831H32.0472C32.432 10.2831 32.7442 9.97109 32.7442 9.58607C32.7442 9.20128 32.432 8.8893 32.0472 8.8893H20.4069C20.4382 8.45341 20.633 8.04529 20.9525 7.74708C21.2721 7.44886 21.6924 7.28226 22.1295 7.28109H35.8515C36.3117 7.28155 36.7527 7.4645 37.0782 7.79001C37.4035 8.1153 37.5865 8.55631 37.5872 9.01647L37.5875 22.3947ZM41.6064 19.3278C41.6092 19.8265 41.4144 20.306 41.0641 20.6611C40.7141 21.0163 40.2374 21.2179 39.7387 21.2221H38.9812V9.01612C38.9803 8.18656 38.6501 7.3911 38.0635 6.80449C37.4769 6.21786 36.6816 5.88789 35.8519 5.88676H26.9511V5.26137C26.9553 4.76271 27.1569 4.28599 27.5121 3.93594C27.8672 3.58592 28.3468 3.39084 28.8451 3.39364H36.8564C38.1158 3.39527 39.3231 3.89604 40.2136 4.78646C41.104 5.67688 41.6048 6.88423 41.6064 8.1436L41.6064 19.3278Z" fill="black"/>
<path d="M32.1474 15.2097L30.3844 14.9531L29.5957 13.3558C29.4655 13.1344 29.2277 12.9983 28.9708 12.9983C28.7139 12.9983 28.4761 13.1344 28.3459 13.3558L27.5577 14.9531L25.7943 15.2097C25.5318 15.2478 25.3138 15.4316 25.2319 15.6839C25.1498 15.9359 25.2181 16.2129 25.4081 16.3979L26.6837 17.6421L26.3825 19.3981C26.3375 19.6597 26.4453 19.9238 26.6599 20.0797C26.8746 20.2355 27.1593 20.2561 27.394 20.1324L28.971 19.3036L30.5481 20.1324C30.7829 20.2558 31.0673 20.2353 31.282 20.0794C31.4964 19.9236 31.604 19.6594 31.5594 19.3981L31.258 17.6415L32.5336 16.398C32.7236 16.2129 32.7919 15.936 32.7098 15.6837C32.6279 15.4315 32.4099 15.2478 32.1474 15.2097ZM30.0228 16.8996C29.8587 17.0597 29.7838 17.2902 29.8223 17.5161L29.9469 18.2416L29.2952 17.8993C29.0924 17.7924 28.8498 17.7924 28.6468 17.8993L27.9955 18.2416L28.1201 17.5161C28.1586 17.2902 28.0835 17.0597 27.9194 16.8996L27.3923 16.3858L28.1208 16.2796C28.3476 16.2467 28.5441 16.1041 28.6458 15.8983L28.9711 15.2389L29.2971 15.8983C29.3984 16.1041 29.5946 16.2467 29.8214 16.2796L30.5499 16.3858L30.0228 16.8996Z" fill="#007FFF"/>
<path d="M35.4431 9.09275C35.1663 8.83467 34.7372 8.83467 34.4602 9.09275C34.3916 9.15598 34.3391 9.23485 34.3072 9.32282C34.1945 9.5809 34.2558 9.88191 34.4602 10.0756C34.5223 10.1426 34.5986 10.1948 34.6835 10.2287C34.7673 10.2644 34.8572 10.2833 34.9484 10.2845C35.0417 10.284 35.1339 10.2651 35.2198 10.2287C35.3047 10.1948 35.381 10.1426 35.4431 10.0756C35.5752 9.94797 35.6484 9.7711 35.6452 9.58746C35.6463 9.49692 35.6298 9.40685 35.5962 9.32285C35.5619 9.23628 35.5096 9.15785 35.4431 9.09275Z" fill="#007FFF"/>
</g>
<path d="M1.1 43C1.02667 43 0.97 42.98 0.93 42.94C0.89 42.8933 0.87 42.8367 0.87 42.77V36.24C0.87 36.1667 0.89 36.11 0.93 36.07C0.97 36.0233 1.02667 36 1.1 36H3.64C4.13333 36 4.56 36.08 4.92 36.24C5.28667 36.4 5.57 36.64 5.77 36.96C5.97 37.2733 6.07 37.6667 6.07 38.14C6.07 38.6133 5.97 39.0067 5.77 39.32C5.57 39.6333 5.28667 39.87 4.92 40.03C4.56 40.19 4.13333 40.27 3.64 40.27H1.87V42.77C1.87 42.8367 1.84667 42.8933 1.8 42.94C1.76 42.98 1.70333 43 1.63 43H1.1ZM1.86 39.43H3.59C4.08333 39.43 4.45333 39.32 4.7 39.1C4.94667 38.88 5.07 38.56 5.07 38.14C5.07 37.7267 4.95 37.4067 4.71 37.18C4.47 36.9533 4.09667 36.84 3.59 36.84H1.86V39.43ZM9.21766 43.1C8.71099 43.1 8.28766 43.0033 7.94766 42.81C7.60766 42.6167 7.34766 42.35 7.16766 42.01C6.98766 41.6633 6.88766 41.27 6.86766 40.83C6.86099 40.7167 6.85766 40.5733 6.85766 40.4C6.85766 40.22 6.86099 40.0767 6.86766 39.97C6.88766 39.5233 6.98766 39.13 7.16766 38.79C7.35432 38.45 7.61766 38.1833 7.95766 37.99C8.29766 37.7967 8.71766 37.7 9.21766 37.7C9.71766 37.7 10.1377 37.7967 10.4777 37.99C10.8177 38.1833 11.0777 38.45 11.2577 38.79C11.4443 39.13 11.5477 39.5233 11.5677 39.97C11.5743 40.0767 11.5777 40.22 11.5777 40.4C11.5777 40.5733 11.5743 40.7167 11.5677 40.83C11.5477 41.27 11.4477 41.6633 11.2677 42.01C11.0877 42.35 10.8277 42.6167 10.4877 42.81C10.1477 43.0033 9.72432 43.1 9.21766 43.1ZM9.21766 42.33C9.63099 42.33 9.96099 42.2 10.2077 41.94C10.4543 41.6733 10.5877 41.2867 10.6077 40.78C10.6143 40.68 10.6177 40.5533 10.6177 40.4C10.6177 40.2467 10.6143 40.12 10.6077 40.02C10.5877 39.5133 10.4543 39.13 10.2077 38.87C9.96099 38.6033 9.63099 38.47 9.21766 38.47C8.80432 38.47 8.47099 38.6033 8.21766 38.87C7.97099 39.13 7.84099 39.5133 7.82766 40.02C7.82099 40.12 7.81766 40.2467 7.81766 40.4C7.81766 40.5533 7.82099 40.68 7.82766 40.78C7.84099 41.2867 7.97099 41.6733 8.21766 41.94C8.47099 42.2 8.80432 42.33 9.21766 42.33ZM13.0698 43C13.0032 43 12.9465 42.98 12.8998 42.94C12.8598 42.8933 12.8398 42.8367 12.8398 42.77V36.13C12.8398 36.0633 12.8598 36.01 12.8998 35.97C12.9465 35.9233 13.0032 35.9 13.0698 35.9H13.5398C13.6132 35.9 13.6698 35.9233 13.7098 35.97C13.7498 36.01 13.7698 36.0633 13.7698 36.13V42.77C13.7698 42.8367 13.7498 42.8933 13.7098 42.94C13.6698 42.98 13.6132 43 13.5398 43H13.0698ZM15.5891 43C15.5225 43 15.4658 42.98 15.4191 42.94C15.3791 42.8933 15.3591 42.8367 15.3591 42.77V38.03C15.3591 37.9633 15.3791 37.91 15.4191 37.87C15.4658 37.8233 15.5225 37.8 15.5891 37.8H16.0691C16.1358 37.8 16.1891 37.8233 16.2291 37.87C16.2691 37.91 16.2891 37.9633 16.2891 38.03V42.77C16.2891 42.8367 16.2691 42.8933 16.2291 42.94C16.1891 42.98 16.1358 43 16.0691 43H15.5891ZM15.5091 36.83C15.4425 36.83 15.3858 36.81 15.3391 36.77C15.2991 36.7233 15.2791 36.6667 15.2791 36.6V36.06C15.2791 35.9933 15.2991 35.94 15.3391 35.9C15.3858 35.8533 15.4425 35.83 15.5091 35.83H16.1391C16.2058 35.83 16.2591 35.8533 16.2991 35.9C16.3458 35.94 16.3691 35.9933 16.3691 36.06V36.6C16.3691 36.6667 16.3458 36.7233 16.2991 36.77C16.2591 36.81 16.2058 36.83 16.1391 36.83H15.5091ZM19.9005 43.1C19.4272 43.1 19.0172 43.01 18.6705 42.83C18.3305 42.6433 18.0672 42.38 17.8805 42.04C17.6939 41.6933 17.5939 41.28 17.5805 40.8C17.5739 40.7 17.5705 40.5667 17.5705 40.4C17.5705 40.2333 17.5739 40.1 17.5805 40C17.5939 39.52 17.6939 39.11 17.8805 38.77C18.0672 38.4233 18.3305 38.16 18.6705 37.98C19.0172 37.7933 19.4272 37.7 19.9005 37.7C20.2872 37.7 20.6172 37.7533 20.8905 37.86C21.1705 37.9667 21.4005 38.1033 21.5805 38.27C21.7605 38.4367 21.8939 38.6167 21.9805 38.81C22.0739 39.0033 22.1239 39.1867 22.1305 39.36C22.1372 39.4267 22.1172 39.48 22.0705 39.52C22.0239 39.56 21.9672 39.58 21.9005 39.58H21.4205C21.3539 39.58 21.3039 39.5667 21.2705 39.54C21.2372 39.5067 21.2039 39.4533 21.1705 39.38C21.0505 39.0533 20.8872 38.8233 20.6805 38.69C20.4739 38.5567 20.2172 38.49 19.9105 38.49C19.5105 38.49 19.1839 38.6133 18.9305 38.86C18.6839 39.1067 18.5505 39.5033 18.5305 40.05C18.5239 40.29 18.5239 40.5233 18.5305 40.75C18.5505 41.3033 18.6839 41.7033 18.9305 41.95C19.1839 42.19 19.5105 42.31 19.9105 42.31C20.2172 42.31 20.4739 42.2433 20.6805 42.11C20.8872 41.9767 21.0505 41.7467 21.1705 41.42C21.2039 41.3467 21.2372 41.2967 21.2705 41.27C21.3039 41.2367 21.3539 41.22 21.4205 41.22H21.9005C21.9672 41.22 22.0239 41.24 22.0705 41.28C22.1172 41.32 22.1372 41.3733 22.1305 41.44C22.1239 41.58 22.0939 41.7233 22.0405 41.87C21.9872 42.0167 21.9005 42.1667 21.7805 42.32C21.6672 42.4667 21.5239 42.6 21.3505 42.72C21.1772 42.8333 20.9672 42.9267 20.7205 43C20.4805 43.0667 20.2072 43.1 19.9005 43.1ZM24.0816 44.9C24.0283 44.9 23.9816 44.88 23.9416 44.84C23.9016 44.8 23.8816 44.7533 23.8816 44.7C23.8816 44.6733 23.885 44.6467 23.8916 44.62C23.8983 44.5933 23.9116 44.56 23.9316 44.52L24.7016 42.69L22.7916 38.18C22.7583 38.1 22.7416 38.0433 22.7416 38.01C22.7416 37.95 22.7616 37.9 22.8016 37.86C22.8416 37.82 22.8916 37.8 22.9516 37.8H23.4416C23.5083 37.8 23.5616 37.8167 23.6016 37.85C23.6416 37.8833 23.6683 37.9233 23.6816 37.97L25.2016 41.61L26.7616 37.97C26.7816 37.9233 26.8083 37.8833 26.8416 37.85C26.8816 37.8167 26.9383 37.8 27.0116 37.8H27.4816C27.5416 37.8 27.5916 37.82 27.6316 37.86C27.6716 37.9 27.6916 37.9467 27.6916 38C27.6916 38.0333 27.675 38.0933 27.6416 38.18L24.8016 44.73C24.7816 44.7767 24.7516 44.8167 24.7116 44.85C24.6783 44.8833 24.625 44.9 24.5516 44.9H24.0816ZM33.517 43.1C32.9036 43.1 32.3936 42.9867 31.987 42.76C31.587 42.5333 31.2836 42.2167 31.077 41.81C30.8703 41.4033 30.757 40.93 30.737 40.39C30.7303 40.1167 30.727 39.8233 30.727 39.51C30.727 39.1967 30.7303 38.8967 30.737 38.61C30.757 38.07 30.8703 37.5967 31.077 37.19C31.2836 36.7833 31.587 36.4667 31.987 36.24C32.3936 36.0133 32.9036 35.9 33.517 35.9C33.977 35.9 34.3803 35.9633 34.727 36.09C35.0736 36.2167 35.3603 36.3867 35.587 36.6C35.8203 36.8133 35.997 37.0533 36.117 37.32C36.237 37.58 36.3036 37.85 36.317 38.13C36.3236 38.19 36.3036 38.24 36.257 38.28C36.217 38.32 36.167 38.34 36.107 38.34H35.557C35.497 38.34 35.4436 38.3233 35.397 38.29C35.357 38.2567 35.327 38.1967 35.307 38.11C35.1936 37.59 34.9803 37.2333 34.667 37.04C34.3603 36.8467 33.9736 36.75 33.507 36.75C32.9736 36.75 32.5503 36.9033 32.237 37.21C31.9236 37.51 31.7536 37.9933 31.727 38.66C31.707 39.2067 31.707 39.7667 31.727 40.34C31.7536 41.0067 31.9236 41.4933 32.237 41.8C32.5503 42.1 32.9736 42.25 33.507 42.25C33.9736 42.25 34.3603 42.1533 34.667 41.96C34.9803 41.7667 35.1936 41.41 35.307 40.89C35.327 40.8033 35.357 40.7433 35.397 40.71C35.4436 40.6767 35.497 40.66 35.557 40.66H36.107C36.167 40.66 36.217 40.68 36.257 40.72C36.3036 40.76 36.3236 40.81 36.317 40.87C36.3036 41.15 36.237 41.4233 36.117 41.69C35.997 41.95 35.8203 42.1867 35.587 42.4C35.3603 42.6133 35.0736 42.7833 34.727 42.91C34.3803 43.0367 33.977 43.1 33.517 43.1ZM39.5971 43.1C38.9104 43.1 38.3638 42.89 37.9571 42.47C37.5504 42.0433 37.3271 41.4633 37.2871 40.73C37.2804 40.6433 37.2771 40.5333 37.2771 40.4C37.2771 40.26 37.2804 40.1467 37.2871 40.06C37.3138 39.5867 37.4238 39.1733 37.6171 38.82C37.8104 38.46 38.0738 38.1833 38.4071 37.99C38.7471 37.7967 39.1438 37.7 39.5971 37.7C40.1038 37.7 40.5271 37.8067 40.8671 38.02C41.2138 38.2333 41.4771 38.5367 41.6571 38.93C41.8371 39.3233 41.9271 39.7833 41.9271 40.31V40.48C41.9271 40.5533 41.9038 40.61 41.8571 40.65C41.8171 40.69 41.7638 40.71 41.6971 40.71H38.2371C38.2371 40.7167 38.2371 40.73 38.2371 40.75C38.2371 40.77 38.2371 40.7867 38.2371 40.8C38.2504 41.0733 38.3104 41.33 38.4171 41.57C38.5238 41.8033 38.6771 41.9933 38.8771 42.14C39.0771 42.2867 39.3171 42.36 39.5971 42.36C39.8371 42.36 40.0371 42.3233 40.1971 42.25C40.3571 42.1767 40.4871 42.0967 40.5871 42.01C40.6871 41.9167 40.7538 41.8467 40.7871 41.8C40.8471 41.7133 40.8938 41.6633 40.9271 41.65C40.9604 41.63 41.0138 41.62 41.0871 41.62H41.5671C41.6338 41.62 41.6871 41.64 41.7271 41.68C41.7738 41.7133 41.7938 41.7633 41.7871 41.83C41.7804 41.93 41.7271 42.0533 41.6271 42.2C41.5271 42.34 41.3838 42.48 41.1971 42.62C41.0104 42.76 40.7838 42.8767 40.5171 42.97C40.2504 43.0567 39.9438 43.1 39.5971 43.1ZM38.2371 40.02H40.9771V39.99C40.9771 39.69 40.9204 39.4233 40.8071 39.19C40.7004 38.9567 40.5438 38.7733 40.3371 38.64C40.1304 38.5 39.8838 38.43 39.5971 38.43C39.3104 38.43 39.0638 38.5 38.8571 38.64C38.6571 38.7733 38.5038 38.9567 38.3971 39.19C38.2904 39.4233 38.2371 39.69 38.2371 39.99V40.02ZM43.3528 43C43.2861 43 43.2295 42.98 43.1828 42.94C43.1428 42.8933 43.1228 42.8367 43.1228 42.77V38.03C43.1228 37.9633 43.1428 37.91 43.1828 37.87C43.2295 37.8233 43.2861 37.8 43.3528 37.8H43.8228C43.8895 37.8 43.9428 37.8233 43.9828 37.87C44.0295 37.91 44.0528 37.9633 44.0528 38.03V38.47C44.2261 38.2433 44.4428 38.06 44.7028 37.92C44.9695 37.7733 45.3095 37.7 45.7228 37.7C46.1561 37.7 46.5228 37.7967 46.8228 37.99C47.1295 38.1767 47.3595 38.44 47.5128 38.78C47.6661 39.1133 47.7428 39.5033 47.7428 39.95V42.77C47.7428 42.8367 47.7228 42.8933 47.6828 42.94C47.6428 42.98 47.5895 43 47.5228 43H47.0228C46.9561 43 46.8995 42.98 46.8528 42.94C46.8128 42.8933 46.7928 42.8367 46.7928 42.77V40C46.7928 39.5333 46.6795 39.17 46.4528 38.91C46.2261 38.6433 45.8928 38.51 45.4528 38.51C45.0395 38.51 44.7061 38.6433 44.4528 38.91C44.2061 39.17 44.0828 39.5333 44.0828 40V42.77C44.0828 42.8367 44.0595 42.8933 44.0128 42.94C43.9728 42.98 43.9195 43 43.8528 43H43.3528ZM51.1489 43C50.7756 43 50.4722 42.93 50.2389 42.79C50.0056 42.6433 49.8356 42.44 49.7289 42.18C49.6222 41.9133 49.5689 41.6 49.5689 41.24V38.6H48.7889C48.7222 38.6 48.6656 38.58 48.6189 38.54C48.5789 38.4933 48.5589 38.4367 48.5589 38.37V38.03C48.5589 37.9633 48.5789 37.91 48.6189 37.87C48.6656 37.8233 48.7222 37.8 48.7889 37.8H49.5689V36.13C49.5689 36.0633 49.5889 36.01 49.6289 35.97C49.6756 35.9233 49.7322 35.9 49.7989 35.9H50.2689C50.3356 35.9 50.3889 35.9233 50.4289 35.97C50.4756 36.01 50.4989 36.0633 50.4989 36.13V37.8H51.7389C51.8056 37.8 51.8589 37.8233 51.8989 37.87C51.9456 37.91 51.9689 37.9633 51.9689 38.03V38.37C51.9689 38.4367 51.9456 38.4933 51.8989 38.54C51.8589 38.58 51.8056 38.6 51.7389 38.6H50.4989V41.17C50.4989 41.4833 50.5522 41.73 50.6589 41.91C50.7656 42.09 50.9556 42.18 51.2289 42.18H51.8389C51.9056 42.18 51.9589 42.2033 51.9989 42.25C52.0456 42.29 52.0689 42.3433 52.0689 42.41V42.77C52.0689 42.8367 52.0456 42.8933 51.9989 42.94C51.9589 42.98 51.9056 43 51.8389 43H51.1489ZM55.0952 43.1C54.4085 43.1 53.8618 42.89 53.4552 42.47C53.0485 42.0433 52.8252 41.4633 52.7852 40.73C52.7785 40.6433 52.7752 40.5333 52.7752 40.4C52.7752 40.26 52.7785 40.1467 52.7852 40.06C52.8118 39.5867 52.9218 39.1733 53.1152 38.82C53.3085 38.46 53.5718 38.1833 53.9052 37.99C54.2452 37.7967 54.6418 37.7 55.0952 37.7C55.6018 37.7 56.0252 37.8067 56.3652 38.02C56.7118 38.2333 56.9752 38.5367 57.1552 38.93C57.3352 39.3233 57.4252 39.7833 57.4252 40.31V40.48C57.4252 40.5533 57.4018 40.61 57.3552 40.65C57.3152 40.69 57.2618 40.71 57.1952 40.71H53.7352C53.7352 40.7167 53.7352 40.73 53.7352 40.75C53.7352 40.77 53.7352 40.7867 53.7352 40.8C53.7485 41.0733 53.8085 41.33 53.9152 41.57C54.0218 41.8033 54.1752 41.9933 54.3752 42.14C54.5752 42.2867 54.8152 42.36 55.0952 42.36C55.3352 42.36 55.5352 42.3233 55.6952 42.25C55.8552 42.1767 55.9852 42.0967 56.0852 42.01C56.1852 41.9167 56.2518 41.8467 56.2852 41.8C56.3452 41.7133 56.3918 41.6633 56.4252 41.65C56.4585 41.63 56.5118 41.62 56.5852 41.62H57.0652C57.1318 41.62 57.1852 41.64 57.2252 41.68C57.2718 41.7133 57.2918 41.7633 57.2852 41.83C57.2785 41.93 57.2252 42.0533 57.1252 42.2C57.0252 42.34 56.8818 42.48 56.6952 42.62C56.5085 42.76 56.2818 42.8767 56.0152 42.97C55.7485 43.0567 55.4418 43.1 55.0952 43.1ZM53.7352 40.02H56.4752V39.99C56.4752 39.69 56.4185 39.4233 56.3052 39.19C56.1985 38.9567 56.0418 38.7733 55.8352 38.64C55.6285 38.5 55.3818 38.43 55.0952 38.43C54.8085 38.43 54.5618 38.5 54.3552 38.64C54.1552 38.7733 54.0018 38.9567 53.8952 39.19C53.7885 39.4233 53.7352 39.69 53.7352 39.99V40.02ZM58.8509 43C58.7842 43 58.7275 42.98 58.6809 42.94C58.6409 42.8933 58.6209 42.8367 58.6209 42.77V38.04C58.6209 37.9733 58.6409 37.9167 58.6809 37.87C58.7275 37.8233 58.7842 37.8 58.8509 37.8H59.3109C59.3775 37.8 59.4342 37.8233 59.4809 37.87C59.5275 37.9167 59.5509 37.9733 59.5509 38.04V38.48C59.6842 38.2533 59.8675 38.0833 60.1009 37.97C60.3342 37.8567 60.6142 37.8 60.9409 37.8H61.3409C61.4075 37.8 61.4609 37.8233 61.5009 37.87C61.5409 37.91 61.5609 37.9633 61.5609 38.03V38.44C61.5609 38.5067 61.5409 38.56 61.5009 38.6C61.4609 38.64 61.4075 38.66 61.3409 38.66H60.7409C60.3809 38.66 60.0975 38.7667 59.8909 38.98C59.6842 39.1867 59.5809 39.47 59.5809 39.83V42.77C59.5809 42.8367 59.5575 42.8933 59.5109 42.94C59.4642 42.98 59.4075 43 59.3409 43H58.8509Z" fill="#007FFF"/>
</svg>
