<svg width="65" height="44" viewBox="0 0 65 44" fill="none" xmlns="http://www.w3.org/2000/svg">
<path d="M25.25 6H20.75C20.336 6 20 5.664 20 5.25V3C20 1.3455 21.3455 0 23 0C24.6545 0 26 1.3455 26 3V5.25C26 5.664 25.664 6 25.25 6ZM21.5 4.5H24.5V3C24.5 2.17275 23.8273 1.5 23 1.5C22.1727 1.5 21.5 2.17275 21.5 3V4.5Z" fill="#007FFF"/>
<path d="M40.25 19.5C39.8352 19.5 39.5 19.1647 39.5 18.75V3C39.5 2.17275 38.8273 1.5 38 1.5C37.5853 1.5 37.25 1.164 37.25 0.75C37.25 0.336 37.5853 0 38 0C39.6545 0 41 1.3455 41 3V18.75C41 19.1647 40.6648 19.5 40.25 19.5Z" fill="#007FFF"/>
<path d="M27.5 24C25.8455 24 24.5 22.6545 24.5 21V18.75C24.5 18.3353 24.836 18 25.25 18C25.664 18 26 18.3353 26 18.75V21C26 21.8273 26.6727 22.5 27.5 22.5C28.3273 22.5 29 21.8273 29 21V18.75C29 18.3353 29.336 18 29.75 18C30.164 18 30.5 18.3353 30.5 18.75V21C30.5 22.6545 29.1545 24 27.5 24Z" fill="#007FFF"/>
<path d="M41 24C40.5853 24 40.25 23.6648 40.25 23.25C40.25 22.8352 40.5853 22.5 41 22.5C41.8273 22.5 42.5 21.8273 42.5 21V18.75C42.5 18.3353 42.8352 18 43.25 18C43.6648 18 44 18.3353 44 18.75V21C44 22.6545 42.6545 24 41 24Z" fill="#007FFF"/>
<path d="M38 1.5H23C22.586 1.5 22.25 1.164 22.25 0.75C22.25 0.336 22.586 0 23 0H38C38.4147 0 38.75 0.336 38.75 0.75C38.75 1.164 38.4147 1.5 38 1.5Z" fill="#007FFF"/>
<path d="M41 24H27.5C27.086 24 26.75 23.6647 26.75 23.25C26.75 22.8353 27.086 22.5 27.5 22.5H41C41.4148 22.5 41.75 22.8353 41.75 23.25C41.75 23.6647 41.4148 24 41 24Z" fill="#007FFF"/>
<path d="M25.25 19.5C24.836 19.5 24.5 19.1648 24.5 18.75V5.25C24.5 4.836 24.836 4.5 25.25 4.5C25.664 4.5 26 4.836 26 5.25V18.75C26 19.1648 25.664 19.5 25.25 19.5Z" fill="#007FFF"/>
<path d="M25.5 22L25 1H34H39.5L40 3L40.5 18.5L29.5 19V21L28.5 22.5L27.5 23L25.5 22Z" fill="#007FFF"/>
<path d="M43.25 19.5H29.75C29.336 19.5 29 19.1647 29 18.75C29 18.3353 29.336 18 29.75 18H43.25C43.6648 18 44 18.3353 44 18.75C44 19.1647 43.6648 19.5 43.25 19.5Z" fill="#007FFF"/>
<path d="M37.25 6H28.25C27.836 6 27.5 5.664 27.5 5.25C27.5 4.836 27.836 4.5 28.25 4.5H37.25C37.6648 4.5 38 4.836 38 5.25C38 5.664 37.6648 6 37.25 6Z" fill="white"/>
<path d="M37.25 9H28.25C27.836 9 27.5 8.664 27.5 8.25C27.5 7.836 27.836 7.5 28.25 7.5H37.25C37.6648 7.5 38 7.836 38 8.25C38 8.664 37.6648 9 37.25 9Z" fill="white"/>
<path d="M37.25 12H28.25C27.836 12 27.5 11.664 27.5 11.25C27.5 10.836 27.836 10.5 28.25 10.5H37.25C37.6648 10.5 38 10.836 38 11.25C38 11.664 37.6648 12 37.25 12Z" fill="white"/>
<path d="M32.75 15H28.25C27.836 15 27.5 14.6647 27.5 14.25C27.5 13.8353 27.836 13.5 28.25 13.5H32.75C33.1648 13.5 33.5 13.8353 33.5 14.25C33.5 14.6647 33.1648 15 32.75 15Z" fill="white"/>
<path d="M1.02 38C0.953333 38 0.896667 37.9767 0.85 37.93C0.803333 37.8833 0.78 37.8267 0.78 37.76V31.25C0.78 31.1767 0.803333 31.1167 0.85 31.07C0.896667 31.0233 0.953333 31 1.02 31H3.7C4.22 31 4.67333 31.0833 5.06 31.25C5.44667 31.41 5.74667 31.6567 5.96 31.99C6.17333 32.3167 6.28 32.7267 6.28 33.22C6.28 33.72 6.17333 34.1333 5.96 34.46C5.74667 34.78 5.44667 35.02 5.06 35.18C4.67333 35.34 4.22 35.42 3.7 35.42H2.21V37.76C2.21 37.8267 2.18667 37.8833 2.14 37.93C2.1 37.9767 2.04333 38 1.97 38H1.02ZM2.19 34.31H3.65C4.03667 34.31 4.33333 34.22 4.54 34.04C4.74667 33.8533 4.85 33.58 4.85 33.22C4.85 32.8867 4.75333 32.62 4.56 32.42C4.36667 32.2133 4.06333 32.11 3.65 32.11H2.19V34.31ZM9.48344 38.1C8.9501 38.1 8.5001 38.0067 8.13344 37.82C7.77344 37.6333 7.49677 37.37 7.30344 37.03C7.11677 36.69 7.0101 36.2933 6.98344 35.84C6.97677 35.72 6.97344 35.5733 6.97344 35.4C6.97344 35.2267 6.97677 35.08 6.98344 34.96C7.0101 34.5 7.1201 34.1033 7.31344 33.77C7.51344 33.43 7.79344 33.1667 8.15344 32.98C8.5201 32.7933 8.96344 32.7 9.48344 32.7C10.0034 32.7 10.4434 32.7933 10.8034 32.98C11.1701 33.1667 11.4501 33.43 11.6434 33.77C11.8434 34.1033 11.9568 34.5 11.9834 34.96C11.9901 35.08 11.9934 35.2267 11.9934 35.4C11.9934 35.5733 11.9901 35.72 11.9834 35.84C11.9568 36.2933 11.8468 36.69 11.6534 37.03C11.4668 37.37 11.1901 37.6333 10.8234 37.82C10.4634 38.0067 10.0168 38.1 9.48344 38.1ZM9.48344 37.11C9.83677 37.11 10.1101 37 10.3034 36.78C10.4968 36.5533 10.6034 36.2233 10.6234 35.79C10.6301 35.69 10.6334 35.56 10.6334 35.4C10.6334 35.24 10.6301 35.11 10.6234 35.01C10.6034 34.5833 10.4968 34.2567 10.3034 34.03C10.1101 33.8033 9.83677 33.69 9.48344 33.69C9.1301 33.69 8.85677 33.8033 8.66344 34.03C8.4701 34.2567 8.36344 34.5833 8.34344 35.01C8.33677 35.11 8.33344 35.24 8.33344 35.4C8.33344 35.56 8.33677 35.69 8.34344 35.79C8.36344 36.2233 8.4701 36.5533 8.66344 36.78C8.85677 37 9.1301 37.11 9.48344 37.11ZM13.3514 38C13.2847 38 13.2281 37.9767 13.1814 37.93C13.1347 37.8833 13.1114 37.8267 13.1114 37.76V31.14C13.1114 31.0733 13.1347 31.0167 13.1814 30.97C13.2281 30.9233 13.2847 30.9 13.3514 30.9H14.1814C14.2481 30.9 14.3047 30.9233 14.3514 30.97C14.3981 31.0167 14.4214 31.0733 14.4214 31.14V37.76C14.4214 37.8267 14.3981 37.8833 14.3514 37.93C14.3047 37.9767 14.2481 38 14.1814 38H13.3514ZM16.2027 38C16.1361 38 16.0794 37.9767 16.0327 37.93C15.9861 37.8833 15.9627 37.8267 15.9627 37.76V33.04C15.9627 32.9733 15.9861 32.9167 16.0327 32.87C16.0794 32.8233 16.1361 32.8 16.2027 32.8H17.0327C17.1061 32.8 17.1627 32.8233 17.2027 32.87C17.2494 32.9167 17.2727 32.9733 17.2727 33.04V37.76C17.2727 37.8267 17.2494 37.8833 17.2027 37.93C17.1627 37.9767 17.1061 38 17.0327 38H16.2027ZM16.1627 31.94C16.0894 31.94 16.0294 31.92 15.9827 31.88C15.9427 31.8333 15.9227 31.7733 15.9227 31.7V30.98C15.9227 30.9133 15.9427 30.8567 15.9827 30.81C16.0294 30.7633 16.0894 30.74 16.1627 30.74H17.0727C17.1461 30.74 17.2061 30.7633 17.2527 30.81C17.2994 30.8567 17.3227 30.9133 17.3227 30.98V31.7C17.3227 31.7733 17.2994 31.8333 17.2527 31.88C17.2061 31.92 17.1461 31.94 17.0727 31.94H16.1627ZM20.8788 38.1C20.3988 38.1 19.9754 38.01 19.6088 37.83C19.2488 37.65 18.9654 37.39 18.7588 37.05C18.5588 36.7033 18.4488 36.2867 18.4288 35.8C18.4221 35.7 18.4188 35.57 18.4188 35.41C18.4188 35.2433 18.4221 35.1067 18.4288 35C18.4488 34.5133 18.5588 34.1 18.7588 33.76C18.9654 33.4133 19.2488 33.15 19.6088 32.97C19.9754 32.79 20.3988 32.7 20.8788 32.7C21.3054 32.7 21.6688 32.76 21.9688 32.88C22.2688 33 22.5154 33.15 22.7088 33.33C22.9021 33.51 23.0454 33.7 23.1388 33.9C23.2388 34.0933 23.2921 34.27 23.2988 34.43C23.3054 34.5033 23.2821 34.5633 23.2288 34.61C23.1821 34.65 23.1254 34.67 23.0588 34.67H22.1788C22.1121 34.67 22.0588 34.6533 22.0188 34.62C21.9854 34.5867 21.9521 34.5367 21.9188 34.47C21.8188 34.2033 21.6854 34.0167 21.5188 33.91C21.3588 33.7967 21.1521 33.74 20.8988 33.74C20.5654 33.74 20.2988 33.8467 20.0988 34.06C19.9054 34.2667 19.8021 34.5967 19.7888 35.05C19.7754 35.3033 19.7754 35.5367 19.7888 35.75C19.8021 36.21 19.9054 36.5433 20.0988 36.75C20.2988 36.9567 20.5654 37.06 20.8988 37.06C21.1588 37.06 21.3688 37.0067 21.5288 36.9C21.6888 36.7867 21.8188 36.5967 21.9188 36.33C21.9521 36.2633 21.9854 36.2133 22.0188 36.18C22.0588 36.1467 22.1121 36.13 22.1788 36.13H23.0588C23.1254 36.13 23.1821 36.1533 23.2288 36.2C23.2821 36.24 23.3054 36.2967 23.2988 36.37C23.2921 36.49 23.2588 36.6267 23.1988 36.78C23.1454 36.9267 23.0554 37.08 22.9288 37.24C22.8088 37.3933 22.6554 37.5367 22.4688 37.67C22.2821 37.7967 22.0554 37.9 21.7888 37.98C21.5288 38.06 21.2254 38.1 20.8788 38.1ZM25.1156 39.9C25.0623 39.9 25.0156 39.88 24.9756 39.84C24.9356 39.8 24.9156 39.7533 24.9156 39.7C24.9156 39.6733 24.9156 39.6467 24.9156 39.62C24.9223 39.6 24.9356 39.5733 24.9556 39.54L25.7356 37.69L23.8156 33.16C23.789 33.0933 23.7756 33.0467 23.7756 33.02C23.7823 32.96 23.8056 32.91 23.8456 32.87C23.8856 32.8233 23.9356 32.8 23.9956 32.8H24.8056C24.8856 32.8 24.9456 32.82 24.9856 32.86C25.0256 32.9 25.0556 32.9433 25.0756 32.99L26.4056 36.26L27.7756 32.99C27.7956 32.9367 27.8256 32.8933 27.8656 32.86C27.9056 32.82 27.9656 32.8 28.0456 32.8H28.8456C28.899 32.8 28.9456 32.82 28.9856 32.86C29.0323 32.9 29.0556 32.9467 29.0556 33C29.0556 33.04 29.0423 33.0933 29.0156 33.16L26.1856 39.71C26.159 39.7633 26.1256 39.8067 26.0856 39.84C26.0456 39.88 25.9856 39.9 25.9056 39.9H25.1156ZM34.7593 38.1C34.1393 38.1 33.6126 37.9933 33.1793 37.78C32.7526 37.56 32.426 37.25 32.1993 36.85C31.9726 36.4433 31.846 35.9567 31.8193 35.39C31.8126 35.1167 31.8093 34.8233 31.8093 34.51C31.8093 34.1967 31.8126 33.8967 31.8193 33.61C31.846 33.05 31.9726 32.5667 32.1993 32.16C32.4326 31.7533 32.7626 31.4433 33.1893 31.23C33.6226 31.01 34.146 30.9 34.7593 30.9C35.2126 30.9 35.6193 30.96 35.9793 31.08C36.3393 31.2 36.646 31.3667 36.8993 31.58C37.1526 31.7867 37.3493 32.03 37.4893 32.31C37.6293 32.59 37.7026 32.8933 37.7093 33.22C37.716 33.28 37.696 33.33 37.6493 33.37C37.6093 33.41 37.5593 33.43 37.4993 33.43H36.5493C36.476 33.43 36.416 33.4133 36.3693 33.38C36.3226 33.34 36.2893 33.2767 36.2693 33.19C36.1626 32.75 35.9793 32.45 35.7193 32.29C35.4593 32.13 35.136 32.05 34.7493 32.05C34.3026 32.05 33.946 32.1767 33.6793 32.43C33.4126 32.6767 33.2693 33.0867 33.2493 33.66C33.2293 34.2067 33.2293 34.7667 33.2493 35.34C33.2693 35.9133 33.4126 36.3267 33.6793 36.58C33.946 36.8267 34.3026 36.95 34.7493 36.95C35.136 36.95 35.4593 36.87 35.7193 36.71C35.9793 36.5433 36.1626 36.2433 36.2693 35.81C36.2893 35.7167 36.3226 35.6533 36.3693 35.62C36.416 35.5867 36.476 35.57 36.5493 35.57H37.4993C37.5593 35.57 37.6093 35.59 37.6493 35.63C37.696 35.67 37.716 35.72 37.7093 35.78C37.7026 36.1067 37.6293 36.41 37.4893 36.69C37.3493 36.97 37.1526 37.2167 36.8993 37.43C36.646 37.6367 36.3393 37.8 35.9793 37.92C35.6193 38.04 35.2126 38.1 34.7593 38.1ZM41.0152 38.1C40.2752 38.1 39.6886 37.8867 39.2552 37.46C38.8219 37.0333 38.5886 36.4267 38.5552 35.64C38.5486 35.5733 38.5452 35.49 38.5452 35.39C38.5452 35.2833 38.5486 35.2 38.5552 35.14C38.5819 34.64 38.6952 34.2067 38.8952 33.84C39.1019 33.4733 39.3852 33.1933 39.7452 33C40.1052 32.8 40.5286 32.7 41.0152 32.7C41.5552 32.7 42.0086 32.8133 42.3752 33.04C42.7419 33.26 43.0186 33.57 43.2052 33.97C43.3919 34.3633 43.4852 34.82 43.4852 35.34V35.55C43.4852 35.6167 43.4619 35.6733 43.4152 35.72C43.3686 35.7667 43.3086 35.79 43.2352 35.79H39.9152C39.9152 35.79 39.9152 35.8 39.9152 35.82C39.9152 35.84 39.9152 35.8567 39.9152 35.87C39.9219 36.1033 39.9652 36.32 40.0452 36.52C40.1319 36.7133 40.2552 36.87 40.4152 36.99C40.5819 37.11 40.7786 37.17 41.0052 37.17C41.1919 37.17 41.3486 37.1433 41.4752 37.09C41.6019 37.03 41.7052 36.9633 41.7852 36.89C41.8652 36.8167 41.9219 36.7567 41.9552 36.71C42.0152 36.63 42.0619 36.5833 42.0952 36.57C42.1352 36.55 42.1919 36.54 42.2652 36.54H43.1252C43.1919 36.54 43.2452 36.56 43.2852 36.6C43.3319 36.64 43.3519 36.69 43.3452 36.75C43.3386 36.8567 43.2819 36.9867 43.1752 37.14C43.0752 37.2933 42.9286 37.4433 42.7352 37.59C42.5419 37.7367 42.2986 37.86 42.0052 37.96C41.7186 38.0533 41.3886 38.1 41.0152 38.1ZM39.9152 34.95H42.1252V34.92C42.1252 34.66 42.0819 34.4333 41.9952 34.24C41.9086 34.0467 41.7819 33.8933 41.6152 33.78C41.4486 33.6667 41.2486 33.61 41.0152 33.61C40.7819 33.61 40.5819 33.6667 40.4152 33.78C40.2486 33.8933 40.1219 34.0467 40.0352 34.24C39.9552 34.4333 39.9152 34.66 39.9152 34.92V34.95ZM44.7867 38C44.7201 38 44.6634 37.9767 44.6167 37.93C44.5701 37.8833 44.5467 37.8267 44.5467 37.76V33.04C44.5467 32.9733 44.5701 32.9167 44.6167 32.87C44.6634 32.8233 44.7201 32.8 44.7867 32.8H45.6067C45.6734 32.8 45.7301 32.8233 45.7767 32.87C45.8234 32.9167 45.8467 32.9733 45.8467 33.04V33.45C46.0201 33.2367 46.2401 33.06 46.5067 32.92C46.7801 32.7733 47.1167 32.7 47.5167 32.7C47.9234 32.7 48.2767 32.7933 48.5767 32.98C48.8767 33.16 49.1067 33.4167 49.2667 33.75C49.4334 34.0833 49.5167 34.4833 49.5167 34.95V37.76C49.5167 37.8267 49.4934 37.8833 49.4467 37.93C49.4001 37.9767 49.3434 38 49.2767 38H48.3967C48.3301 38 48.2734 37.9767 48.2267 37.93C48.1801 37.8833 48.1567 37.8267 48.1567 37.76V35.01C48.1567 34.6233 48.0601 34.32 47.8667 34.1C47.6801 33.88 47.4067 33.77 47.0467 33.77C46.7001 33.77 46.4234 33.88 46.2167 34.1C46.0101 34.32 45.9067 34.6233 45.9067 35.01V37.76C45.9067 37.8267 45.8834 37.8833 45.8367 37.93C45.7901 37.9767 45.7334 38 45.6667 38H44.7867ZM53.0784 38C52.6784 38 52.3417 37.93 52.0684 37.79C51.795 37.65 51.5917 37.4433 51.4584 37.17C51.325 36.89 51.2584 36.5433 51.2584 36.13V33.86H50.4684C50.4017 33.86 50.345 33.8367 50.2984 33.79C50.2517 33.7433 50.2284 33.6867 50.2284 33.62V33.04C50.2284 32.9733 50.2517 32.9167 50.2984 32.87C50.345 32.8233 50.4017 32.8 50.4684 32.8H51.2584V31.14C51.2584 31.0733 51.2784 31.0167 51.3184 30.97C51.365 30.9233 51.425 30.9 51.4984 30.9H52.3084C52.375 30.9 52.4317 30.9233 52.4784 30.97C52.525 31.0167 52.5484 31.0733 52.5484 31.14V32.8H53.7984C53.865 32.8 53.9217 32.8233 53.9684 32.87C54.015 32.9167 54.0384 32.9733 54.0384 33.04V33.62C54.0384 33.6867 54.015 33.7433 53.9684 33.79C53.9217 33.8367 53.865 33.86 53.7984 33.86H52.5484V36.03C52.5484 36.3033 52.595 36.5167 52.6884 36.67C52.7884 36.8233 52.9584 36.9 53.1984 36.9H53.8884C53.955 36.9 54.0117 36.9233 54.0584 36.97C54.105 37.0167 54.1284 37.0733 54.1284 37.14V37.76C54.1284 37.8267 54.105 37.8833 54.0584 37.93C54.0117 37.9767 53.955 38 53.8884 38H53.0784ZM57.2555 38.1C56.5155 38.1 55.9288 37.8867 55.4955 37.46C55.0621 37.0333 54.8288 36.4267 54.7955 35.64C54.7888 35.5733 54.7855 35.49 54.7855 35.39C54.7855 35.2833 54.7888 35.2 54.7955 35.14C54.8221 34.64 54.9355 34.2067 55.1355 33.84C55.3421 33.4733 55.6255 33.1933 55.9855 33C56.3455 32.8 56.7688 32.7 57.2555 32.7C57.7955 32.7 58.2488 32.8133 58.6155 33.04C58.9821 33.26 59.2588 33.57 59.4455 33.97C59.6321 34.3633 59.7255 34.82 59.7255 35.34V35.55C59.7255 35.6167 59.7021 35.6733 59.6555 35.72C59.6088 35.7667 59.5488 35.79 59.4755 35.79H56.1555C56.1555 35.79 56.1555 35.8 56.1555 35.82C56.1555 35.84 56.1555 35.8567 56.1555 35.87C56.1621 36.1033 56.2055 36.32 56.2855 36.52C56.3721 36.7133 56.4955 36.87 56.6555 36.99C56.8221 37.11 57.0188 37.17 57.2455 37.17C57.4321 37.17 57.5888 37.1433 57.7155 37.09C57.8421 37.03 57.9455 36.9633 58.0255 36.89C58.1055 36.8167 58.1621 36.7567 58.1955 36.71C58.2555 36.63 58.3021 36.5833 58.3355 36.57C58.3755 36.55 58.4321 36.54 58.5055 36.54H59.3655C59.4321 36.54 59.4855 36.56 59.5255 36.6C59.5721 36.64 59.5921 36.69 59.5855 36.75C59.5788 36.8567 59.5221 36.9867 59.4155 37.14C59.3155 37.2933 59.1688 37.4433 58.9755 37.59C58.7821 37.7367 58.5388 37.86 58.2455 37.96C57.9588 38.0533 57.6288 38.1 57.2555 38.1ZM56.1555 34.95H58.3655V34.92C58.3655 34.66 58.3221 34.4333 58.2355 34.24C58.1488 34.0467 58.0221 33.8933 57.8555 33.78C57.6888 33.6667 57.4888 33.61 57.2555 33.61C57.0221 33.61 56.8221 33.6667 56.6555 33.78C56.4888 33.8933 56.3621 34.0467 56.2755 34.24C56.1955 34.4333 56.1555 34.66 56.1555 34.92V34.95ZM61.027 38C60.9603 38 60.9036 37.9767 60.857 37.93C60.8103 37.8833 60.787 37.8267 60.787 37.76V33.05C60.787 32.9767 60.8103 32.9167 60.857 32.87C60.9036 32.8233 60.9603 32.8 61.027 32.8H61.837C61.9036 32.8 61.9603 32.8233 62.007 32.87C62.0603 32.9167 62.087 32.9767 62.087 33.05V33.46C62.2403 33.2467 62.437 33.0833 62.677 32.97C62.9236 32.8567 63.207 32.8 63.527 32.8H63.937C64.0103 32.8 64.067 32.8233 64.107 32.87C64.1536 32.9167 64.177 32.9733 64.177 33.04V33.76C64.177 33.8267 64.1536 33.8833 64.107 33.93C64.067 33.9767 64.0103 34 63.937 34H63.157C62.837 34 62.587 34.09 62.407 34.27C62.2336 34.45 62.147 34.6967 62.147 35.01V37.76C62.147 37.8267 62.1236 37.8833 62.077 37.93C62.0303 37.9767 61.9703 38 61.897 38H61.027Z" fill="#007FFF"/>
</svg>
