<svg width="45" height="47" viewBox="0 0 45 47" fill="none" xmlns="http://www.w3.org/2000/svg">
<path d="M28.8565 1.00001H20.8452C19.9771 0.997448 19.1434 1.33953 18.5269 1.9509C17.9106 2.56225 17.5617 3.39324 17.5573 4.26152V4.8869H14.1295C13.2999 4.88783 12.5044 5.21802 11.9178 5.80463C11.3312 6.39127 11.0012 7.18676 11.0001 8.01626V21.3949C10.9919 22.4925 11.488 23.533 12.346 24.2177C13.204 24.9023 14.3287 25.155 15.3973 24.9033L20.8078 23.649C20.9415 23.6061 21.0858 23.6103 21.2169 23.6607L26.5811 24.9028C27.6106 25.1418 28.6935 24.914 29.5394 24.2802C30.3855 23.6465 30.9084 22.6715 30.9687 21.6161H31.7385C32.6068 21.6117 33.4377 21.2628 34.0491 20.6466C34.6604 20.0301 35.0026 19.1964 35 18.3281V7.14419C34.9981 5.51517 34.3503 3.95365 33.1986 2.80187C32.0468 1.65009 30.4854 1.00187 28.8565 1.00001ZM33.6064 18.3278C33.6092 18.8265 33.4144 19.306 33.0641 19.6611C32.7141 20.0163 32.2374 20.2179 31.7387 20.2221H30.9812V8.01612C30.9803 7.18656 30.6501 6.3911 30.0635 5.80449C29.4769 5.21786 28.6816 4.88789 27.8519 4.88676H18.9511V4.26137C18.9553 3.76271 19.1569 3.28599 19.5121 2.93594C19.8672 2.58592 20.3468 2.39084 20.8451 2.39364H28.8564C30.1158 2.39527 31.3231 2.89604 32.2136 3.78646C33.104 4.67688 33.6048 5.88423 33.6064 7.1436L33.6064 18.3278Z" fill="#683FDB"/>
<path d="M27.4431 8.09275C27.1663 7.83467 26.7372 7.83467 26.4602 8.09275C26.3916 8.15598 26.3391 8.23485 26.3072 8.32282C26.1945 8.5809 26.2558 8.88191 26.4602 9.07561C26.5223 9.14258 26.5986 9.19485 26.6835 9.22868C26.7673 9.26439 26.8572 9.28329 26.9484 9.28445C27.0417 9.28399 27.1339 9.26508 27.2198 9.22868C27.3047 9.19485 27.381 9.14258 27.4431 9.07561C27.5752 8.94797 27.6484 8.7711 27.6452 8.58746C27.6463 8.49692 27.6298 8.40685 27.5962 8.32285C27.5619 8.23628 27.5096 8.15785 27.4431 8.09275Z" fill="#683FDB"/>
<path d="M12.3944 21.3947C12.3923 22.0709 12.701 22.7105 13.2319 23.1296C13.7515 23.5447 14.4331 23.6981 15.0806 23.5454L20.4502 22.302C20.8179 22.1932 21.21 22.1974 21.5756 22.3136L26.8985 23.5447C27.5467 23.6999 28.2302 23.5464 28.7496 23.1289C29.2807 22.7103 29.5896 22.0707 29.5875 21.3947L29.5872 8.01647C29.5865 7.55631 29.4035 7.1153 29.0782 6.79001C28.7527 6.4645 28.3117 6.28155 27.8515 6.28109H14.1295C13.6924 6.28226 13.2721 6.44886 12.9525 6.74708C12.633 7.04529 12.4382 7.45341 12.4069 7.8893H24.0472C24.432 7.8893 24.7442 8.20128 24.7442 8.58607C24.7442 8.97109 24.432 9.28308 24.0472 9.28308M28.8565 1.00001H20.8452C19.9771 0.997448 19.1434 1.33953 18.5269 1.9509C17.9106 2.56225 17.5617 3.39324 17.5573 4.26152V4.8869H14.1295C13.2999 4.88783 12.5044 5.21802 11.9178 5.80463C11.3312 6.39127 11.0012 7.18676 11.0001 8.01626V21.3949C10.9919 22.4925 11.488 23.533 12.346 24.2177C13.204 24.9023 14.3287 25.155 15.3973 24.9033L20.8078 23.649C20.9415 23.6061 21.0858 23.6103 21.2169 23.6607L26.5811 24.9028C27.6106 25.1418 28.6935 24.914 29.5394 24.2802C30.3855 23.6465 30.9084 22.6715 30.9687 21.6161H31.7385C32.6068 21.6117 33.4377 21.2628 34.0491 20.6466C34.6604 20.0301 35.0026 19.1964 35 18.3281V7.14419C34.9981 5.51517 34.3503 3.95365 33.1986 2.80187C32.0468 1.65009 30.4854 1.00187 28.8565 1.00001ZM33.6064 18.3278C33.6092 18.8265 33.4144 19.306 33.0641 19.6611C32.7141 20.0163 32.2374 20.2179 31.7387 20.2221H30.9812V8.01612C30.9803 7.18656 30.6501 6.3911 30.0635 5.80449C29.4769 5.21786 28.6816 4.88789 27.8519 4.88676H18.9511V4.26137C18.9553 3.76271 19.1569 3.28599 19.5121 2.93594C19.8672 2.58592 20.3468 2.39084 20.8451 2.39364H28.8564C30.1158 2.39527 31.3231 2.89604 32.2136 3.78646C33.104 4.67688 33.6048 5.88423 33.6064 7.1436L33.6064 18.3278ZM27.4431 8.09275C27.1663 7.83467 26.7372 7.83467 26.4602 8.09275C26.3916 8.15598 26.3391 8.23485 26.3072 8.32282C26.1945 8.5809 26.2558 8.88191 26.4602 9.07561C26.5223 9.14258 26.5986 9.19485 26.6835 9.22868C26.7673 9.26439 26.8572 9.28329 26.9484 9.28445C27.0417 9.28399 27.1339 9.26508 27.2198 9.22868C27.3047 9.19485 27.381 9.14258 27.4431 9.07561C27.5752 8.94797 27.6484 8.7711 27.6452 8.58746C27.6463 8.49692 27.6298 8.40685 27.5962 8.32285C27.5619 8.23628 27.5096 8.15785 27.4431 8.09275Z" stroke="#683FDB" stroke-width="0.5"/>
<path d="M24.1474 14.2097L22.3845 13.953L21.5958 12.3558C21.4656 12.1344 21.2278 11.9983 20.9709 11.9983C20.714 11.9983 20.4762 12.1344 20.346 12.3558L19.5578 13.953L17.7944 14.2097C17.5318 14.2478 17.3139 14.4316 17.232 14.6839C17.1498 14.9359 17.2182 15.2129 17.4082 15.3979L18.6838 16.6421L18.3826 18.3981C18.3375 18.6597 18.4454 18.9238 18.66 19.0797C18.8747 19.2355 19.1594 19.2561 19.3941 19.1324L20.9711 18.3036L22.5482 19.1324C22.783 19.2558 23.0674 19.2353 23.2821 19.0794C23.4965 18.9236 23.6041 18.6594 23.5595 18.3981L23.258 16.6415L24.5337 15.398C24.7237 15.2129 24.792 14.936 24.7099 14.6837C24.628 14.4315 24.41 14.2478 24.1474 14.2097ZM22.0229 15.8996C21.8588 16.0597 21.7839 16.2902 21.8224 16.5161L21.947 17.2416L21.2953 16.8993C21.0925 16.7924 20.8498 16.7924 20.6469 16.8993L19.9956 17.2416L20.1202 16.5161C20.1587 16.2902 20.0836 16.0597 19.9195 15.8996L19.3924 15.3858L20.1209 15.2796C20.3477 15.2467 20.5442 15.1041 20.6459 14.8983L20.9712 14.2389L21.2972 14.8983C21.3985 15.1041 21.5947 15.2467 21.8215 15.2796L22.55 15.3858L22.0229 15.8996Z" fill="white" stroke="#683FDB" stroke-width="0.3"/>
<path d="M27.443 8.09276C27.1662 7.83468 26.7371 7.83468 26.4601 8.09276C26.3915 8.15599 26.339 8.23486 26.307 8.32284C26.1943 8.58091 26.2557 8.88192 26.4601 9.07562C26.5222 9.14259 26.5985 9.19486 26.6834 9.2287C26.7672 9.2644 26.857 9.2833 26.9483 9.28446C27.0416 9.284 27.1338 9.2651 27.2197 9.2287C27.3046 9.19486 27.3809 9.14259 27.443 9.07562C27.575 8.94799 27.6483 8.77111 27.645 8.58747C27.6462 8.49693 27.6296 8.40687 27.596 8.32286C27.5617 8.23629 27.5095 8.15786 27.443 8.09276Z" fill="white"/>
<path d="M24.0471 9.28309H13.0975C12.7101 9.28309 12.3971 8.96725 12.4006 8.57993C12.4041 8.19751 12.715 7.88931 13.0975 7.88931H24.0471C24.4319 7.88931 24.7441 8.20129 24.7441 8.58608C24.7441 8.9711 24.4319 9.28309 24.0471 9.28309Z" fill="white"/>
<path d="M1.93 41C1.83 41 1.75 40.9733 1.69 40.92C1.63 40.8667 1.59333 40.7933 1.58 40.7L0.39 34.29L0.38 34.21C0.38 34.15 0.4 34.1 0.44 34.06C0.486667 34.02 0.536667 34 0.59 34H1.47C1.63667 34 1.73 34.0667 1.75 34.2L2.58 38.73L3.48 35.8C3.54667 35.6333 3.65667 35.55 3.81 35.55H4.35C4.51667 35.55 4.62333 35.6333 4.67 35.8L5.58 38.72L6.41 34.2C6.42333 34.1267 6.45 34.0767 6.49 34.05C6.53667 34.0167 6.60333 34 6.69 34H7.57C7.62333 34 7.67 34.02 7.71 34.06C7.75 34.1 7.77 34.15 7.77 34.21C7.77 34.2433 7.76667 34.27 7.76 34.29L6.57 40.7C6.53667 40.9 6.42 41 6.22 41H5.55C5.45667 41 5.38 40.9767 5.32 40.93C5.26 40.8833 5.22 40.8233 5.2 40.75L4.08 37.41L2.96 40.75C2.89333 40.9167 2.77333 41 2.6 41H1.93ZM10.1192 41.1C9.77922 41.1 9.46589 41.0333 9.17922 40.9C8.89922 40.76 8.67589 40.5733 8.50922 40.34C8.34922 40.1067 8.26922 39.85 8.26922 39.57C8.26922 39.1167 8.45255 38.75 8.81922 38.47C9.18589 38.19 9.68922 38 10.3292 37.9L11.6992 37.7V37.49C11.6992 37.1967 11.6259 36.9767 11.4792 36.83C11.3326 36.6833 11.0959 36.61 10.7692 36.61C10.5492 36.61 10.3692 36.6533 10.2292 36.74C10.0959 36.82 9.98922 36.9 9.90922 36.98C9.82922 37.0667 9.77589 37.1233 9.74922 37.15C9.72255 37.23 9.67255 37.27 9.59922 37.27H8.82922C8.76922 37.27 8.71589 37.25 8.66922 37.21C8.62922 37.17 8.60922 37.1167 8.60922 37.05C8.61589 36.8833 8.69589 36.6933 8.84922 36.48C9.00922 36.2667 9.25255 36.0833 9.57922 35.93C9.90589 35.7767 10.3059 35.7 10.7792 35.7C11.5659 35.7 12.1392 35.8767 12.4992 36.23C12.8592 36.5833 13.0392 37.0467 13.0392 37.62V40.76C13.0392 40.8267 13.0159 40.8833 12.9692 40.93C12.9292 40.9767 12.8726 41 12.7992 41H11.9892C11.9226 41 11.8659 40.9767 11.8192 40.93C11.7726 40.8833 11.7492 40.8267 11.7492 40.76V40.37C11.6026 40.5833 11.3926 40.76 11.1192 40.9C10.8526 41.0333 10.5192 41.1 10.1192 41.1ZM10.4592 40.15C10.8259 40.15 11.1259 40.03 11.3592 39.79C11.5926 39.55 11.7092 39.2 11.7092 38.74V38.53L10.7092 38.69C10.3226 38.75 10.0292 38.8467 9.82922 38.98C9.63589 39.1133 9.53922 39.2767 9.53922 39.47C9.53922 39.6833 9.62922 39.85 9.80922 39.97C9.98922 40.09 10.2059 40.15 10.4592 40.15ZM16.6233 41C16.0166 41 15.5599 40.8433 15.2533 40.53C14.9533 40.21 14.8033 39.7433 14.8033 39.13V36.86H14.0133C13.9466 36.86 13.8899 36.8367 13.8433 36.79C13.7966 36.7367 13.7733 36.6767 13.7733 36.61V36.04C13.7733 35.9733 13.7966 35.9167 13.8433 35.87C13.8899 35.8233 13.9466 35.8 14.0133 35.8H14.8033V34.14C14.8033 34.0667 14.8266 34.01 14.8733 33.97C14.9199 33.9233 14.9766 33.9 15.0433 33.9H15.8533C15.9266 33.9 15.9833 33.9233 16.0233 33.97C16.0699 34.01 16.0933 34.0667 16.0933 34.14V35.8H17.3433C17.4166 35.8 17.4733 35.8233 17.5133 35.87C17.5599 35.91 17.5833 35.9667 17.5833 36.04V36.61C17.5833 36.6833 17.5599 36.7433 17.5133 36.79C17.4666 36.8367 17.4099 36.86 17.3433 36.86H16.0933V39.03C16.0933 39.3167 16.1433 39.5333 16.2433 39.68C16.3433 39.8267 16.5099 39.9 16.7433 39.9H17.4333C17.4999 39.9 17.5566 39.9233 17.6033 39.97C17.6499 40.0167 17.6733 40.0733 17.6733 40.14V40.76C17.6733 40.8267 17.6499 40.8833 17.6033 40.93C17.5633 40.9767 17.5066 41 17.4333 41H16.6233ZM20.8104 41.1C20.0771 41.1 19.4904 40.8967 19.0504 40.49C18.6171 40.0833 18.3871 39.52 18.3604 38.8L18.3504 38.4L18.3604 38C18.3871 37.28 18.6171 36.7167 19.0504 36.31C19.4904 35.9033 20.0771 35.7 20.8104 35.7C21.3304 35.7 21.7704 35.7933 22.1304 35.98C22.4971 36.1667 22.7671 36.3967 22.9404 36.67C23.1204 36.9367 23.2171 37.19 23.2304 37.43C23.2371 37.4967 23.2137 37.5533 23.1604 37.6C23.1137 37.6467 23.0571 37.67 22.9904 37.67H22.1104C22.0437 37.67 21.9904 37.6567 21.9504 37.63C21.9171 37.5967 21.8837 37.5433 21.8504 37.47C21.7504 37.21 21.6171 37.0233 21.4504 36.91C21.2904 36.7967 21.0837 36.74 20.8304 36.74C20.4904 36.74 20.2237 36.85 20.0304 37.07C19.8371 37.2833 19.7337 37.61 19.7204 38.05L19.7104 38.42L19.7204 38.75C19.7471 39.6233 20.1171 40.06 20.8304 40.06C21.0904 40.06 21.3004 40.0033 21.4604 39.89C21.6204 39.7767 21.7504 39.59 21.8504 39.33C21.8837 39.2567 21.9171 39.2067 21.9504 39.18C21.9904 39.1467 22.0437 39.13 22.1104 39.13H22.9904C23.0571 39.13 23.1137 39.1533 23.1604 39.2C23.2137 39.2467 23.2371 39.3033 23.2304 39.37C23.2171 39.6033 23.1237 39.8533 22.9504 40.12C22.7771 40.3867 22.5104 40.6167 22.1504 40.81C21.7904 41.0033 21.3437 41.1 20.8104 41.1ZM24.5233 41C24.4566 41 24.3999 40.9767 24.3533 40.93C24.3066 40.8833 24.2833 40.8267 24.2833 40.76V34.14C24.2833 34.0667 24.3066 34.01 24.3533 33.97C24.3999 33.9233 24.4566 33.9 24.5233 33.9H25.4133C25.4866 33.9 25.5433 33.9233 25.5833 33.97C25.6299 34.01 25.6533 34.0667 25.6533 34.14V36.42C26.0533 35.94 26.5933 35.7 27.2733 35.7C27.8866 35.7 28.3766 35.9033 28.7433 36.31C29.1099 36.71 29.2933 37.2567 29.2933 37.95V40.76C29.2933 40.8267 29.2699 40.8833 29.2233 40.93C29.1833 40.9767 29.1266 41 29.0533 41H28.1533C28.0866 41 28.0299 40.9767 27.9833 40.93C27.9366 40.8833 27.9133 40.8267 27.9133 40.76V38.01C27.9133 37.6167 27.8166 37.3133 27.6233 37.1C27.4366 36.88 27.1633 36.77 26.8033 36.77C26.4499 36.77 26.1699 36.88 25.9633 37.1C25.7566 37.32 25.6533 37.6233 25.6533 38.01V40.76C25.6533 40.8267 25.6299 40.8833 25.5833 40.93C25.5433 40.9767 25.4866 41 25.4133 41H24.5233ZM30.8123 41C30.7457 41 30.689 40.9767 30.6423 40.93C30.5957 40.8833 30.5723 40.8267 30.5723 40.76V34.14C30.5723 34.0667 30.5957 34.01 30.6423 33.97C30.689 33.9233 30.7457 33.9 30.8123 33.9H31.6423C31.7157 33.9 31.7723 33.9233 31.8123 33.97C31.859 34.01 31.8823 34.0667 31.8823 34.14V40.76C31.8823 40.8267 31.859 40.8833 31.8123 40.93C31.7723 40.9767 31.7157 41 31.6423 41H30.8123ZM33.4088 34.94C33.3422 34.94 33.2855 34.9167 33.2388 34.87C33.1922 34.8233 33.1688 34.7667 33.1688 34.7V33.98C33.1688 33.9133 33.1922 33.8567 33.2388 33.81C33.2855 33.7633 33.3422 33.74 33.4088 33.74H34.3188C34.3855 33.74 34.4422 33.7633 34.4888 33.81C34.5422 33.8567 34.5688 33.9133 34.5688 33.98V34.7C34.5688 34.7667 34.5455 34.8233 34.4988 34.87C34.4522 34.9167 34.3922 34.94 34.3188 34.94H33.4088ZM33.4488 41C33.3822 41 33.3255 40.9767 33.2788 40.93C33.2322 40.8833 33.2088 40.8267 33.2088 40.76V36.04C33.2088 35.9733 33.2322 35.9167 33.2788 35.87C33.3255 35.8233 33.3822 35.8 33.4488 35.8H34.2788C34.3522 35.8 34.4088 35.8233 34.4488 35.87C34.4955 35.91 34.5188 35.9667 34.5188 36.04V40.76C34.5188 40.8267 34.4955 40.8833 34.4488 40.93C34.4088 40.9767 34.3522 41 34.2788 41H33.4488ZM37.8155 41.1C37.3155 41.1 36.8955 41.0267 36.5555 40.88C36.2155 40.7267 35.9622 40.55 35.7955 40.35C35.6355 40.1433 35.5555 39.9667 35.5555 39.82C35.5555 39.7533 35.5789 39.7 35.6255 39.66C35.6722 39.62 35.7255 39.6 35.7855 39.6H36.5755C36.6355 39.6 36.6855 39.6233 36.7255 39.67C36.7522 39.69 36.8222 39.75 36.9355 39.85C37.0489 39.9567 37.1822 40.04 37.3355 40.1C37.4889 40.16 37.6589 40.19 37.8455 40.19C38.1122 40.19 38.3322 40.1367 38.5055 40.03C38.6789 39.9233 38.7655 39.7767 38.7655 39.59C38.7655 39.45 38.7255 39.3367 38.6455 39.25C38.5722 39.1633 38.4355 39.0867 38.2355 39.02C38.0355 38.9467 37.7389 38.87 37.3455 38.79C36.7789 38.67 36.3589 38.4867 36.0855 38.24C35.8189 37.9933 35.6855 37.6667 35.6855 37.26C35.6855 36.9933 35.7655 36.7433 35.9255 36.51C36.0855 36.27 36.3222 36.0767 36.6355 35.93C36.9555 35.7767 37.3355 35.7 37.7755 35.7C38.2222 35.7 38.6089 35.7733 38.9355 35.92C39.2622 36.06 39.5089 36.23 39.6755 36.43C39.8489 36.6233 39.9355 36.7967 39.9355 36.95C39.9355 37.01 39.9122 37.0633 39.8655 37.11C39.8255 37.15 39.7755 37.17 39.7155 37.17H38.9755C38.9222 37.17 38.8655 37.1467 38.8055 37.1C38.7589 37.0667 38.6855 37.0033 38.5855 36.91C38.4855 36.8167 38.3689 36.7433 38.2355 36.69C38.1022 36.6367 37.9455 36.61 37.7655 36.61C37.5189 36.61 37.3255 36.6633 37.1855 36.77C37.0522 36.8767 36.9855 37.0167 36.9855 37.19C36.9855 37.3167 37.0189 37.42 37.0855 37.5C37.1522 37.58 37.2822 37.6567 37.4755 37.73C37.6689 37.8033 37.9589 37.8767 38.3455 37.95C38.9855 38.0767 39.4422 38.2733 39.7155 38.54C39.9955 38.8067 40.1355 39.1333 40.1355 39.52C40.1355 39.9867 39.9322 40.3667 39.5255 40.66C39.1189 40.9533 38.5489 41.1 37.8155 41.1ZM43.4983 41C42.8916 41 42.4349 40.8433 42.1283 40.53C41.8283 40.21 41.6783 39.7433 41.6783 39.13V36.86H40.8883C40.8216 36.86 40.7649 36.8367 40.7183 36.79C40.6716 36.7367 40.6483 36.6767 40.6483 36.61V36.04C40.6483 35.9733 40.6716 35.9167 40.7183 35.87C40.7649 35.8233 40.8216 35.8 40.8883 35.8H41.6783V34.14C41.6783 34.0667 41.7016 34.01 41.7483 33.97C41.7949 33.9233 41.8516 33.9 41.9183 33.9H42.7283C42.8016 33.9 42.8583 33.9233 42.8983 33.97C42.9449 34.01 42.9683 34.0667 42.9683 34.14V35.8H44.2183C44.2916 35.8 44.3483 35.8233 44.3883 35.87C44.4349 35.91 44.4583 35.9667 44.4583 36.04V36.61C44.4583 36.6833 44.4349 36.7433 44.3883 36.79C44.3416 36.8367 44.2849 36.86 44.2183 36.86H42.9683V39.03C42.9683 39.3167 43.0183 39.5333 43.1183 39.68C43.2183 39.8267 43.3849 39.9 43.6183 39.9H44.3083C44.3749 39.9 44.4316 39.9233 44.4783 39.97C44.5249 40.0167 44.5483 40.0733 44.5483 40.14V40.76C44.5483 40.8267 44.5249 40.8833 44.4783 40.93C44.4383 40.9767 44.3816 41 44.3083 41H43.4983Z" fill="#683FDB"/>
</svg>
